<?xml version="1.0" encoding="UTF-8" standalone="no"?> <!-- Created with Vectornator for iOS (http://vectornator.io/) --><!DOCTYPE svg PUBLIC "-//W3C//DTD SVG 1.1//EN" "http://www.w3.org/Graphics/SVG/1.1/DTD/svg11.dtd">
<svg height="100%" style="fill-rule:evenodd;clip-rule:evenodd;stroke-linecap:round;stroke-linejoin:round;" xmlns:xlink="http://www.w3.org/1999/xlink" xmlns="http://www.w3.org/2000/svg" xml:space="preserve" width="100%" xmlns:vectornator="http://vectornator.io" version="1.1" viewBox="0 0 512.006 512.006">
<metadata>
<vectornator:setting key="DynamicGuides" value="1"/>
<vectornator:setting key="Units" value="Points"/>
<vectornator:setting key="GuidesVisible" value="1"/>
<vectornator:setting key="RulersVisible" value="1"/>
<vectornator:setting key="SnapToGuides" value="1"/>
<vectornator:setting key="GridSpacing" value="36"/>
</metadata>
<defs/>
<g id="Untitled" vectornator:layerName="Untitled">
<g opacity="1">
<path d="M166.911+248.208C189.054+248.208+207.068+230.193+207.068+208.05C207.068+185.907+189.053+167.892+166.911+167.892C144.767+167.892+126.753+185.907+126.753+208.05C126.753+230.193+144.767+248.208+166.911+248.208ZM166.911+182.892C180.783+182.892+192.068+194.178+192.068+208.05C192.068+221.922+180.783+233.208+166.911+233.208C153.039+233.208+141.753+221.922+141.753+208.05C141.753+194.178+153.039+182.892+166.911+182.892Z" opacity="1" fill="#ffffff"/>
<path d="M255.327+206.177C276.931+206.177+294.509+188.6+294.509+166.995C294.509+145.39+276.932+127.813+255.327+127.813C233.722+127.813+216.144+145.39+216.144+166.995C216.144+188.6+233.722+206.177+255.327+206.177ZM255.327+142.813C268.661+142.813+279.509+153.661+279.509+166.995C279.509+180.329+268.661+191.177+255.327+191.177C241.993+191.177+231.144+180.329+231.144+166.995C231.144+153.661+241.993+142.813+255.327+142.813Z" opacity="1" fill="#ffffff"/>
<path d="M183.032+438.48C204.636+438.48+222.214+420.903+222.214+399.298C222.214+377.693+204.637+360.116+183.032+360.116C161.427+360.116+143.849+377.693+143.849+399.298C143.849+420.903+161.427+438.48+183.032+438.48ZM183.032+375.117C196.366+375.117+207.214+385.965+207.214+399.299C207.214+412.633+196.366+423.481+183.032+423.481C169.698+423.481+158.849+412.633+158.849+399.299C158.849+385.965+169.698+375.117+183.032+375.117Z" opacity="1" fill="#ffffff"/>
<path d="M275.301+468.088C296.905+468.088+314.483+450.511+314.483+428.906C314.483+407.301+296.906+389.724+275.301+389.724C253.696+389.724+236.118+407.301+236.118+428.906C236.118+450.511+253.695+468.088+275.301+468.088ZM275.301+404.724C288.635+404.724+299.483+415.572+299.483+428.906C299.483+442.24+288.635+453.088+275.301+453.088C261.967+453.088+251.118+442.24+251.118+428.906C251.118+415.572+261.967+404.724+275.301+404.724Z" opacity="1" fill="#ffffff"/>
<path d="M84.953+306.925C84.953+332.138+105.465+352.65+130.678+352.65C155.891+352.65+176.403+332.138+176.403+306.925C176.403+281.712+155.891+261.2+130.678+261.2C105.465+261.2+84.953+281.712+84.953+306.925ZM130.678+276.2C147.619+276.2+161.403+289.983+161.403+306.925C161.403+323.867+147.62+337.65+130.678+337.65C113.736+337.65+99.953+323.867+99.953+306.925C99.953+289.983+113.736+276.2+130.678+276.2Z" opacity="1" fill="#ffffff"/>
<path d="M46.142+299.061C46.142+412.2+143.609+498.199+257.345+505.127C257.5+505.136+257.655+505.141+257.808+505.141C261.742+505.141+265.045+502.076+265.287+498.097C265.539+493.963+262.391+490.407+258.257+490.155C147.725+483.422+61.142+399.484+61.142+299.061C61.142+185.282+169.475+97.489+293.274+108.703C298.906+114.572+305.836+119.276+313.088+122.719C312.493+125.46+312.597+128.384+313.317+131.027L328.161+185.624C324.705+189.663+323.504+195.162+324.883+200.225L328.416+213.223C330.565+221.14+338.476+226.204+346.562+224.802L353.568+255.141C328.234+266.682+314.381+282.137+314.381+299.062C314.381+316.047+328.539+331.759+354.247+343.301C363.389+347.405+371.3+353.03+377.789+360.033C386.039+396.249+388.576+407.74+394.623+425.946C389.025+450.364+372.287+469.082+348.436+477.481C330.238+483.889+311.298+487.994+292.143+489.682C288.017+490.046+284.966+493.685+285.33+497.811C285.693+501.938+289.346+504.983+293.459+504.624C313.863+502.826+334.037+498.454+353.418+491.629C375.481+483.86+392.901+468.12+402.725+447.824C412.755+472.432+421.897+487.639+430.396+502.46C434.692+509.955+443.516+513.607+451.855+511.34C460.192+509.073+465.952+501.457+465.864+492.817C465.606+467.693+466.268+429.926+448.616+373.655C447.376+369.703+443.169+367.504+439.215+368.744C435.263+369.984+433.065+374.193+434.304+378.145C450.874+430.961+450.588+466.002+450.865+492.971C450.885+494.787+449.674+496.388+447.921+496.865C446.171+497.342+444.313+496.574+443.409+494.998C411.853+439.967+407.877+423.644+391.969+354.766C391.969+354.766+361.065+220.933+361.065+220.932L383.104+214.94L394.274+250.544L394.274+250.545L423.824+344.737C425.064+348.689+429.27+350.888+433.225+349.648C437.177+348.408+439.376+344.199+438.136+340.247L410.785+253.064C452.108+236.321+463.667+180.823+428.29+149.93C413.793+137.271+397.542+126.473+379.978+117.746L378.751+113.234C378.002+110.476+376.617+108.003+374.732+105.962C382.303+94.783+389.857+77.493+384.356+57.259C379.075+37.838+366.092+30.345+352.348+22.413C344.012+17.602+335.392+12.627+327.076+4.35001C318.995-3.68899+305.647-0.0779912+302.746+10.964C299.766+22.313+294.85+30.968+290.098+39.338C282.175+53.291+272.526+69.529+282.746+92.986C155.432+87.505+46.142+179.848+46.142+299.061ZM372.247+336.037C368.508+333.64+364.559+331.488+360.391+329.617C340.683+320.768+329.38+309.631+329.38+299.061C329.38+288.999+339.338+278.662+357.018+270.086L372.247+336.037ZM418.422+161.23C444.973+184.415+436.41+225.769+406.283+238.719C398.536+214.027+400.637+220.722+397.566+210.933C405.411+207.93+409.459+199.523+407.35+191.761L403.817+178.763C402.432+173.674+398.589+169.553+393.596+167.832L385.384+137.629C397.208+144.466+408.273+152.367+418.422+161.23ZM388.107+181.991L388.11+181.99C388.592+181.86+389.186+182.124+389.341+182.698L392.874+195.695C393.02+196.231+392.702+196.785+392.167+196.93C382.131+199.659+353.274+207.504+344.124+209.992C343.6+210.138+343.038+209.83+342.889+209.285L339.356+196.287C339.201+195.714+339.594+195.179+340.063+195.052L388.107+181.991ZM378.392+169.088L341.907+179.007L327.792+127.09C327.427+125.755+328.264+124.364+329.554+124.012L361.2+115.408C362.429+115.071+363.889+115.742+364.277+117.17C368.919+134.245+365.663+122.269+378.392+169.088ZM303.142+46.747C308.024+38.151+313.542+28.432+317.055+15.537C326.579+24.862+336.277+30.458+344.851+35.407C357.259+42.568+366.224+47.741+369.882+61.197C374.353+77.639+366.656+91.975+360.28+100.392C359.314+100.479+358.183+100.685+357.263+100.935L325.617+109.539C324.652+109.801+323.546+110.218+322.744+110.597C309.477+105.152+298.409+95.617+294.615+81.661C290.957+68.205+296.068+59.204+303.142+46.747Z" opacity="1" fill="#ffffff"/>
</g>
</g>
</svg>
