<?xml version="1.0" encoding="UTF-8" standalone="no"?> <!-- Created with Vectornator for iOS (http://vectornator.io/) --><!DOCTYPE svg PUBLIC "-//W3C//DTD SVG 1.1//EN" "http://www.w3.org/Graphics/SVG/1.1/DTD/svg11.dtd">
<svg height="100%" style="fill-rule:evenodd;clip-rule:evenodd;stroke-linecap:round;stroke-linejoin:round;" xmlns:xlink="http://www.w3.org/1999/xlink" xmlns="http://www.w3.org/2000/svg" xml:space="preserve" width="100%" xmlns:vectornator="http://vectornator.io" version="1.1" viewBox="0 0 512 512">
<metadata>
<vectornator:setting key="DynamicGuides" value="1"/>
<vectornator:setting key="Units" value="Points"/>
<vectornator:setting key="GuidesVisible" value="1"/>
<vectornator:setting key="RulersVisible" value="1"/>
<vectornator:setting key="SnapToGuides" value="1"/>
<vectornator:setting key="GridSpacing" value="36"/>
</metadata>
<defs/>
<g id="Untitled" vectornator:layerName="Untitled">
<g opacity="1">
<path d="M472+56L40+56C22.3365+56.0231+8.02313+70.3365+8+88L8+360C8.02313+377.664+22.3365+391.977+40+392L204.9+392L194.23+424L168+424C163.582+424+160+427.582+160+432L160+448L88+448C83.5817+448+80+451.582+80+456C80+460.418+83.5817+464+88+464L440+464C444.418+464+448+460.418+448+456C448+451.582+444.418+448+440+448L352+448L352+432C352+427.582+348.418+424+344+424L317.77+424L307.1+392L472+392C489.664+391.977+503.977+377.664+504+360L504+88C503.977+70.3365+489.664+56.0231+472+56ZM336+440L336+448L176+448L176+440L336+440ZM211.1+424L221.77+392L290.23+392L300.9+424L211.1+424ZM488+360C487.988+368.832+480.832+375.988+472+376L40+376C31.1682+375.988+24.0116+368.832+24+360L24+344L488+344L488+360ZM143.66+256L140.66+328L131.34+328L128.34+256L143.66+256ZM129.44+240L134.78+208L137.22+208L142.56+240L129.44+240ZM136+192C127.33+192+120+181.01+120+168C120+159.79+128.38+147.86+135.98+139.45C142.83+147.05+152+159.2+152+168C152+181.01+144.67+192+136+192ZM223.06+176L224+177.89L224+184L192+184L192+177.89L192.94+176L223.06+176ZM200.94+160L208+145.89L215.06+160L200.94+160ZM224+200L224+327C224.003+327.334+224.026+327.668+224.07+328L191.93+328C191.974+327.668+191.997+327.334+192+327L192+200L224+200ZM296+168L320+168L320+184L312+184C307.582+184+304+187.582+304+192C304+196.418+307.582+200+312+200L320+200L320+216L296+216C291.582+216+288+219.582+288+224C288+228.418+291.582+232+296+232L320+232L320+248L312+248C307.582+248+304+251.582+304+256C304+260.418+307.582+264+312+264L320+264L320+280L296+280C291.582+280+288+283.582+288+288C288+292.418+291.582+296+296+296L320+296L320+328L264+328L264+136L320+136L320+152L296+152C291.582+152+288+155.582+288+160C288+164.418+291.582+168+296+168ZM392+264L392+327C392.003+327.334+392.026+327.668+392.07+328L359.93+328C359.974+327.668+359.997+327.334+360+327L360+264L392+264ZM360+248L360+241.89L376+209.89L392+241.89L392+248L360+248ZM488+328L407.93+328C407.974+327.668+407.997+327.334+408+327L408+240C407.999+238.758+407.711+237.533+407.16+236.42L383.16+188.42C381.802+185.71+379.031+184+376+184C372.969+184+370.198+185.71+368.84+188.42L344.84+236.42C344.289+237.533+344.001+238.758+344+240L344+327C344.003+327.334+344.026+327.668+344.07+328L336+328L336+128C336+123.582+332.418+120+328+120L256+120C251.582+120+248+123.582+248+128L248+328L239.93+328C239.974+327.668+239.997+327.334+240+327L240+176C239.999+174.758+239.711+173.533+239.16+172.42L215.16+124.42C213.802+121.71+211.031+120+208+120C204.969+120+202.198+121.71+200.84+124.42L176.84+172.42C176.289+173.533+176.001+174.758+176+176L176+327C176.003+327.334+176.026+327.668+176.07+328L156.67+328L159.99+248.33C160+248.15+159.99+247.97+159.99+247.78L159.99+247.54C159.971+247.258+159.938+246.978+159.89+246.7L159.89+246.68L152.49+202.27C161.78+195.26+168+182.52+168+168C168+147.44+144.17+124.67+141.45+122.14C138.375+119.29+133.625+119.29+130.55+122.14C127.83+124.67+104+147.44+104+168C104+182.52+110.22+195.26+119.51+202.27L112.11+246.68L112.11+246.7C112.062+246.978+112.029+247.258+112.01+247.54L112.01+247.78C112.01+247.97+112+248.15+112.01+248.33L115.33+328L24+328L24+88C24.0116+79.1682+31.1682+72.0116+40+72L472+72C480.832+72.0116+487.988+79.1682+488+88L488+328Z" opacity="1" fill="#ffffff"/>
<path d="M96+352L48+352C43.5817+352+40+355.582+40+360C40+364.418+43.5817+368+48+368L96+368C100.418+368+104+364.418+104+360C104+355.582+100.418+352+96+352Z" opacity="1" fill="#ffffff"/>
<path d="M128+352L120+352C115.582+352+112+355.582+112+360C112+364.418+115.582+368+120+368L128+368C132.418+368+136+364.418+136+360C136+355.582+132.418+352+128+352Z" opacity="1" fill="#ffffff"/>
<path d="M208+208C203.582+208+200+211.582+200+216L200+304C200+308.418+203.582+312+208+312C212.418+312+216+308.418+216+304L216+216C216+211.582+212.418+208+208+208Z" opacity="1" fill="#ffffff"/>
<path d="M376+272C371.582+272+368+275.582+368+280L368+304C368+308.418+371.582+312+376+312C380.418+312+384+308.418+384+304L384+280C384+275.582+380.418+272+376+272Z" opacity="1" fill="#ffffff"/>
<path d="M48+104L112+104C116.418+104+120+100.418+120+96C120+91.5817+116.418+88+112+88L48+88C43.5817+88+40+91.5817+40+96C40+100.418+43.5817+104+48+104Z" opacity="1" fill="#ffffff"/>
<path d="M48+128L64+128C68.4183+128+72+124.418+72+120C72+115.582+68.4183+112+64+112L48+112C43.5817+112+40+115.582+40+120C40+124.418+43.5817+128+48+128Z" opacity="1" fill="#ffffff"/>
<path d="M432+312L464+312C468.418+312+472+308.418+472+304C472+299.582+468.418+296+464+296L432+296C427.582+296+424+299.582+424+304C424+308.418+427.582+312+432+312Z" opacity="1" fill="#ffffff"/>
<path d="M456+288L464+288C468.418+288+472+284.418+472+280C472+275.582+468.418+272+464+272L456+272C451.582+272+448+275.582+448+280C448+284.418+451.582+288+456+288Z" opacity="1" fill="#ffffff"/>
</g>
</g>
</svg>
