<?xml version="1.0" encoding="UTF-8" standalone="no"?> <!-- Created with Vectornator for iOS (http://vectornator.io/) --><!DOCTYPE svg PUBLIC "-//W3C//DTD SVG 1.1//EN" "http://www.w3.org/Graphics/SVG/1.1/DTD/svg11.dtd">
<svg height="100%" style="fill-rule:evenodd;clip-rule:evenodd;stroke-linecap:round;stroke-linejoin:round;" xmlns:xlink="http://www.w3.org/1999/xlink" xmlns="http://www.w3.org/2000/svg" xml:space="preserve" width="100%" xmlns:vectornator="http://vectornator.io" version="1.1" viewBox="0 0 464 464">
<metadata>
<vectornator:setting key="DynamicGuides" value="1"/>
<vectornator:setting key="Units" value="Points"/>
<vectornator:setting key="GuidesVisible" value="1"/>
<vectornator:setting key="RulersVisible" value="1"/>
<vectornator:setting key="SnapToGuides" value="1"/>
<vectornator:setting key="GridSpacing" value="36"/>
</metadata>
<defs/>
<g id="Untitled" vectornator:layerName="Untitled">
<path d="M456+217.12L353.68+217.12L353.68+197.36C353.675+194.474+352.116+191.814+349.6+190.4L240+128.8L240+97.44L261.68+97.44L261.68+109.36C261.68+113.778+265.262+117.36+269.68+117.36L335.04+117.36C339.458+117.358+343.038+113.775+343.037+109.357C343.037+108.431+342.875+107.512+342.56+106.64L336+88L342.64+69.76C344.142+65.605+341.992+61.019+337.837+59.517C336.966+59.202+336.047+59.041+335.12+59.04L305.36+59.04L305.36+47.44C305.36+43.022+301.778+39.44+297.36+39.44L240+39.44L240+29.68C240+25.262+236.418+21.68+232+21.68C227.582+21.68+224+25.262+224+29.68L224+128.8L114.4+190.32C111.884+191.734+110.325+194.394+110.32+197.28L110.32+217.04L8+217.04C3.582+217.04+0+220.622+0+225.04L0+434.32C0+438.738+3.582+442.32+8+442.32L456+442.32C460.418+442.32+464+438.738+464+434.32L464+225.12C464+220.702+460.418+217.12+456+217.12ZM305.36+89.44L305.04+89.12L305.04+75.36L323.28+75.36L320+85.6C319.345+87.382+319.345+89.338+320+91.12L323.76+101.36L277.68+101.36L277.68+97.44L297.36+97.44C301.778+97.44+305.36+93.858+305.36+89.44ZM240+55.44L289.36+55.44L289.36+67.36L289.36+81.44L240+81.44L240+55.44ZM110.32+426.32L16+426.32L16+233.12L110.32+233.12L110.32+426.32ZM224+426.32L182+426.32L182+334.96L224+334.96L224+426.32ZM282+426.32L240+426.32L240+334.96L282+334.96L282+426.32ZM338+426.32L298+426.32L298+326.96C298+322.542+294.418+318.96+290+318.96L174+318.96C169.582+318.96+166+322.542+166+326.96L166+426.32L126+426.32L126+202.32L232+142.64L337.68+202L338+225.04C338+225.04+338+426.32+338+426.32ZM448+426.32L353.68+426.32L353.68+233.12L448+233.12L448+426.32Z" opacity="1" fill="#ffffff"/>
<path d="M232+167.12C213.474+167.164+198.48+182.194+198.48+200.72C198.524+219.233+213.567+234.204+232.08+234.16C250.593+234.116+265.564+219.073+265.52+200.56C265.476+182.079+250.481+167.12+232+167.12ZM232+218.16C222.324+218.116+214.516+210.236+214.56+200.56C214.604+190.947+222.386+183.164+232+183.12C241.689+183.164+249.52+191.031+249.52+200.72L249.6+200.72C249.556+210.396+241.676+218.204+232+218.16Z" opacity="1" fill="#ffffff"/>
<path d="M35.28+250.72L51.28+250.72L51.28+250.72L51.28+282.72L51.28+282.72L35.28+282.72L35.28+282.72L35.28+250.72L35.28+250.72Z" opacity="1" fill="#ffffff"/>
<path d="M74.72+250.72L90.72+250.72L90.72+250.72L90.72+282.72L90.72+282.72L74.72+282.72L74.72+282.72L74.72+250.72L74.72+250.72Z" opacity="1" fill="#ffffff"/>
<path d="M150.32+250.72L182.32+250.72L182.32+250.72L182.32+266.72L182.32+266.72L150.32+266.72L150.32+266.72L150.32+250.72L150.32+250.72Z" opacity="1" fill="#ffffff"/>
<path d="M216+250.72L248+250.72L248+250.72L248+266.72L248+266.72L216+266.72L216+266.72L216+250.72L216+250.72Z" opacity="1" fill="#ffffff"/>
<path d="M281.68+250.72L313.68+250.72L313.68+250.72L313.68+266.72L313.68+266.72L281.68+266.72L281.68+266.72L281.68+250.72L281.68+250.72Z" opacity="1" fill="#ffffff"/>
<path d="M150.32+288L182.32+288L182.32+288L182.32+304L182.32+304L150.32+304L150.32+304L150.32+288L150.32+288Z" opacity="1" fill="#ffffff"/>
<path d="M216+288L248+288L248+288L248+304L248+304L216+304L216+304L216+288L216+288Z" opacity="1" fill="#ffffff"/>
<path d="M281.68+288L313.68+288L313.68+288L313.68+304L313.68+304L281.68+304L281.68+304L281.68+288L281.68+288Z" opacity="1" fill="#ffffff"/>
<path d="M35.28+313.68L51.28+313.68L51.28+313.68L51.28+345.68L51.28+345.68L35.28+345.68L35.28+345.68L35.28+313.68L35.28+313.68Z" opacity="1" fill="#ffffff"/>
<path d="M74.72+313.68L90.72+313.68L90.72+313.68L90.72+345.68L90.72+345.68L74.72+345.68L74.72+345.68L74.72+313.68L74.72+313.68Z" opacity="1" fill="#ffffff"/>
<path d="M35.28+376.72L51.28+376.72L51.28+376.72L51.28+408.72L51.28+408.72L35.28+408.72L35.28+408.72L35.28+376.72L35.28+376.72Z" opacity="1" fill="#ffffff"/>
<path d="M74.72+376.72L90.72+376.72L90.72+376.72L90.72+408.72L90.72+408.72L74.72+408.72L74.72+408.72L74.72+376.72L74.72+376.72Z" opacity="1" fill="#ffffff"/>
<path d="M373.28+250.72L389.28+250.72L389.28+250.72L389.28+282.72L389.28+282.72L373.28+282.72L373.28+282.72L373.28+250.72L373.28+250.72Z" opacity="1" fill="#ffffff"/>
<path d="M412.72+250.72L428.72+250.72L428.72+250.72L428.72+282.72L428.72+282.72L412.72+282.72L412.72+282.72L412.72+250.72L412.72+250.72Z" opacity="1" fill="#ffffff"/>
<path d="M373.28+313.68L389.28+313.68L389.28+313.68L389.28+345.68L389.28+345.68L373.28+345.68L373.28+345.68L373.28+313.68L373.28+313.68Z" opacity="1" fill="#ffffff"/>
<path d="M412.72+313.68L428.72+313.68L428.72+313.68L428.72+345.68L428.72+345.68L412.72+345.68L412.72+345.68L412.72+313.68L412.72+313.68Z" opacity="1" fill="#ffffff"/>
<path d="M373.28+376.72L389.28+376.72L389.28+376.72L389.28+408.72L389.28+408.72L373.28+408.72L373.28+408.72L373.28+376.72L373.28+376.72Z" opacity="1" fill="#ffffff"/>
<path d="M412.72+376.72L428.72+376.72L428.72+376.72L428.72+408.72L428.72+408.72L412.72+408.72L412.72+408.72L412.72+376.72L412.72+376.72Z" opacity="1" fill="#ffffff"/>
</g>
</svg>
