<?xml version="1.0" encoding="UTF-8" standalone="no"?> <!-- Created with Vectornator for iOS (http://vectornator.io/) --><!DOCTYPE svg PUBLIC "-//W3C//DTD SVG 1.1//EN" "http://www.w3.org/Graphics/SVG/1.1/DTD/svg11.dtd">
<svg style="fill-rule:evenodd;clip-rule:evenodd;stroke-linecap:round;stroke-linejoin:round;" xmlns:vectornator="http://vectornator.io" xmlns:xlink="http://www.w3.org/1999/xlink" xmlns="http://www.w3.org/2000/svg" xml:space="preserve" version="1.1" viewBox="0 0 512 512">
<metadata>
<vectornator:setting key="DynamicGuides" value="1"/>
<vectornator:setting key="Units" value="Points"/>
<vectornator:setting key="GuidesVisible" value="1"/>
<vectornator:setting key="RulersVisible" value="1"/>
<vectornator:setting key="SnapToGuides" value="1"/>
<vectornator:setting key="GridSpacing" value="36"/>
</metadata>
<defs/>
<g id="Untitled" vectornator:layerName="Untitled">
<g opacity="1">
<path d="M327.983+50.854L172.189+50.854C168.046+50.854+164.689+54.211+164.689+58.354C164.689+62.497+168.046+65.854+172.189+65.854L327.983+65.854C332.126+65.854+335.483+62.497+335.483+58.354C335.483+54.211+332.126+50.854+327.983+50.854Z" fill-rule="evenodd" fill="#60bef5" opacity="1"/>
<path d="M327.983+94.756L172.189+94.756C168.046+94.756+164.689+98.113+164.689+102.256C164.689+106.399+168.046+109.756+172.189+109.756L327.983+109.756C332.126+109.756+335.483+106.399+335.483+102.256C335.483+98.113+332.126+94.756+327.983+94.756Z" fill-rule="evenodd" fill="#60bef5" opacity="1"/>
<path d="M471.525+259.381L427+259.381L427+238.443C427+210.847+404.549+188.397+376.953+188.397L292.633+188.397C265.037+188.397+242.586+210.847+242.586+238.443L242.586+259.381L198.061+259.381C175.667+259.381+157.586+277.538+157.586+299.856L157.586+471.379C157.586+493.696+175.743+511.854+198.061+511.854L471.526+511.854C493.843+511.854+512.001+493.697+512.001+471.379L512.001+438.879C512.001+434.736+508.644+431.379+504.501+431.379C500.358+431.379+497.001+434.736+497.001+438.879L497.001+471.379C497.001+485.426+485.573+496.854+471.526+496.854L198.061+496.854C184.014+496.854+172.586+485.426+172.586+471.379L172.586+365.081C184.405+379.654+202.185+389.206+222.179+389.987L222.179+401.438C222.179+416.551+234.475+428.847+249.588+428.847C264.701+428.847+276.997+416.551+276.997+401.438L276.997+390.039L392.589+390.039L392.589+401.438C392.589+416.551+404.885+428.847+419.998+428.847C435.111+428.847+447.407+416.551+447.407+401.438L447.407+389.987C467.401+389.206+485.181+379.654+497+365.081L497+403.816C497+407.959+500.357+411.316+504.5+411.316C508.643+411.316+512+407.959+512+403.816L512+299.854C512+277.544+493.927+259.381+471.525+259.381ZM257.586+238.443C257.586+219.119+273.308+203.397+292.633+203.397L376.953+203.397C396.278+203.397+412+219.119+412+238.443L412+259.381L396.381+259.381L396.381+238.443C396.381+227.732+387.666+219.017+376.953+219.017L292.633+219.017C281.921+219.017+273.206+227.732+273.206+238.443L273.206+259.381L257.586+259.381L257.586+238.443ZM288.206+259.381L288.206+238.443C288.206+236.003+290.191+234.017+292.633+234.017L376.953+234.017C379.394+234.017+381.381+236.002+381.381+238.443L381.381+259.381L288.206+259.381ZM261.997+401.438C261.997+408.281+256.431+413.847+249.588+413.847C242.745+413.847+237.179+408.281+237.179+401.438L237.179+374.627C237.179+367.784+242.745+362.218+249.588+362.218C256.431+362.218+261.997+367.784+261.997+374.627L261.997+401.438ZM432.407+401.438C432.407+408.281+426.841+413.847+419.998+413.847C413.155+413.847+407.589+408.281+407.589+401.438L407.589+382.616C407.589+382.59+407.59+382.564+407.59+382.539C407.59+382.514+407.589+382.487+407.589+382.462L407.589+374.628C407.589+367.785+413.155+362.219+419.998+362.219C426.841+362.219+432.407+367.785+432.407+374.628L432.407+401.438ZM447.407+374.972L447.407+374.628C447.407+359.515+435.111+347.219+419.998+347.219C404.885+347.219+392.589+359.515+392.589+374.628L392.589+375.039L276.997+375.039L276.997+374.628C276.997+359.515+264.701+347.219+249.588+347.219C234.475+347.219+222.179+359.515+222.179+374.628L222.179+374.972C194.598+373.583+172.586+350.708+172.586+322.788L172.586+299.854C172.586+285.787+183.987+274.38+198.061+274.38L471.526+274.38C485.564+274.38+497.001+285.751+497.001+299.855L497.001+322.788C497+350.708+474.988+373.583+447.407+374.972Z" fill-rule="evenodd" fill="#60bef5" opacity="1"/>
<path d="M147.917+496.854L37.089+496.854C24.909+496.854+15+486.945+15+474.765L15+114.512C15+112.893+15.173+111.301+15.511+109.756L83.766+109.756C98.017+109.756+109.611+98.162+109.611+83.912L109.611+15.657C111.156+15.32+112.748+15.146+114.367+15.146L368.655+15.146C380.835+15.146+390.744+25.055+390.744+37.235L390.744+165.917C390.744+170.06+394.101+173.417+398.244+173.417C402.387+173.417+405.744+170.06+405.744+165.917L405.744+37.235C405.744+16.784+389.106+0.146015+368.655+0.146015L114.366+0.146015C104.459+0.146015+95.144+4.00302+88.139+11.008L10.862+88.286C3.85699+95.291-6.85453e-06+104.605-6.85453e-06+114.512L-6.85453e-06+474.765C-6.85453e-06+495.216+16.638+511.854+37.089+511.854L147.917+511.854C152.06+511.854+155.417+508.497+155.417+504.354C155.417+500.211+152.06+496.854+147.917+496.854ZM94.61+25.753L94.61+83.912C94.61+89.891+89.745+94.756+83.765+94.756L25.607+94.756L94.61+25.753Z" fill-rule="evenodd" fill="#60bef5" opacity="1"/>
</g>
</g>
</svg>
