<?xml version="1.0" encoding="UTF-8" standalone="no"?> <!-- Created with Vectornator for iOS (http://vectornator.io/) --><!DOCTYPE svg PUBLIC "-//W3C//DTD SVG 1.1//EN" "http://www.w3.org/Graphics/SVG/1.1/DTD/svg11.dtd">
<svg style="fill-rule:evenodd;clip-rule:evenodd;stroke-linecap:round;stroke-linejoin:round;" xmlns:vectornator="http://vectornator.io" xmlns:xlink="http://www.w3.org/1999/xlink" xmlns="http://www.w3.org/2000/svg" xml:space="preserve" version="1.1" viewBox="0 0 670 670">
<metadata>
<vectornator:setting key="DynamicGuides" value="1"/>
<vectornator:setting key="Units" value="Points"/>
<vectornator:setting key="GuidesVisible" value="1"/>
<vectornator:setting key="RulersVisible" value="1"/>
<vectornator:setting key="SnapToGuides" value="1"/>
<vectornator:setting key="GridSpacing" value="36"/>
</metadata>
<defs/>
<g id="Untitled" vectornator:layerName="Untitled">
<g opacity="1">
<path d="M40.1084+464.005C48.4431+464.258+62.2282+462.149+77.9168+458.915C120.577+450.126+177.366+433.084+177.366+433.084C177.366+433.084+474.31+360.46+661.068+198.946C661.068+198.946+687.046+171.904+650.397+159.448C644.788+157.631+639.029+156.312+633.188+155.507L632.712+155.269C628.361+153.309+623.844+151.741+619.214+150.586C605.571+147.082+583.755+144.817+561.998+156.422L23.995+438.536C23.995+438.536+9.0895+463.033+40.1084+464.005Z" opacity="1" fill="#3f3d56"/>
<path d="M139.494+384.431L-7.80953+339.758L-57.2515+366.377L23.995+438.536C23.995+438.536+143.103+399.775+139.494+384.431Z" opacity="1" fill="#3f3d56"/>
<path d="M422.095+232.904L162.696+245.673L127.14+266.443L250.382+278.822L296.385+305.09L422.095+232.904Z" opacity="1" fill="#3f3d56"/>
<path d="M77.9168+458.915C120.577+450.126+177.366+433.084+177.366+433.084C177.366+433.084+474.31+360.46+661.068+198.946C661.068+198.946+687.046+171.904+650.397+159.448L650.436+159.891C650.436+159.891+614.266+207.093+399.823+308.088L77.9168+458.915Z" opacity="1" fill="#0e91dd"/>
<path d="M115.428+444.348L23.8702+523.087L-3.7543+529.036L43.7317+460.167C43.7317+460.167+114.973+418.155+115.428+444.348Z" opacity="1" fill="#3f3d56"/>
<path d="M613.534+177.369C618.621+175.762+627.375+163.403+632.674+155.282C628.323+153.321+623.806+151.754+619.177+150.598C614.856+156.999+606.931+167.67+601.088+169.311C592.672+171.745+605.871+179.779+613.534+177.369Z" opacity="1" fill="#0e91dd"/>
<path d="M212.067+578.417L281.335+559.222L429.594+366.178L457.114+330.338L470.478+312.925C428.959+296.406+309.46+378.278+309.46+378.278C307.644+381.258+308.025+385.074+309.449+388.955C312.122+396.219+318.449+403.679+320.814+406.334C321.387+406.986+321.719+407.323+321.719+407.323L212.067+578.417Z" opacity="1" fill="#3f3d56"/>
</g>
</g>
</svg>
