<?xml version="1.0" encoding="UTF-8" standalone="no"?> <!-- Created with Vectornator for iOS (http://vectornator.io/) --><!DOCTYPE svg PUBLIC "-//W3C//DTD SVG 1.1//EN" "http://www.w3.org/Graphics/SVG/1.1/DTD/svg11.dtd">
<svg style="fill-rule:evenodd;clip-rule:evenodd;stroke-linecap:round;stroke-linejoin:round;" xmlns:vectornator="http://vectornator.io" xmlns:xlink="http://www.w3.org/1999/xlink" xmlns="http://www.w3.org/2000/svg" xml:space="preserve" version="1.1" viewBox="0 0 1000 1000">
<metadata>
<vectornator:setting key="DisplayWhiteBackground" value="0"/>
<vectornator:setting key="RulersVisible" value="1"/>
<vectornator:setting key="GridSpacing" value="36"/>
<vectornator:setting key="Units" value="Pixels"/>
<vectornator:setting key="New" value="1"/>
<vectornator:setting key="DynamicGuides" value="0"/>
<vectornator:setting key="SnapToPoints" value="0"/>
<vectornator:setting key="SnapToGrid" value="0"/>
<vectornator:setting key="SnapToGuides" value="1"/>
<vectornator:setting key="SnapToEdges" value="0"/>
</metadata>
<defs/>
<g id="Layer 1" vectornator:layerName="Layer 1">
<g vectornator:shadowOffset="18.552" vectornator:shadowOpacity="0.0963542" vectornator:shadowAngle="0.476116" vectornator:shadowColor="#000000" opacity="1" vectornator:shadowRadius="0">
<path d="M15.1181+871.345C15.1181+850.002+32.5124+832.7+53.9693+832.7C75.4262+832.7+92.8205+850.002+92.8205+871.345C92.8205+892.688+75.4262+909.989+53.9693+909.989C32.5124+909.989+15.1181+892.688+15.1181+871.345Z" opacity="1" fill="#dfdfdf"/>
<path d="M129.055+775.996C129.055+746.958+154.744+723.417+186.434+723.417C218.123+723.417+243.812+746.958+243.812+775.996C243.812+805.034+218.123+828.574+186.434+828.574C154.744+828.574+129.055+805.034+129.055+775.996Z" opacity="1" fill="#dfdfdf"/>
<g vectornator:shadowOffset="23.3083" vectornator:shadowOpacity="0.184663" vectornator:shadowAngle="0.326707" vectornator:shadowColor="#000000" opacity="1" vectornator:shadowRadius="4.1">
<path d="M57.4058+444.014C57.4058+362.652+131.238+296.696+222.314+296.696C313.39+296.696+387.222+362.652+387.222+444.014C387.222+525.375+313.39+591.332+222.314+591.332C131.238+591.332+57.4058+525.375+57.4058+444.014Z" opacity="1" fill="#dfdfdf"/>
<path d="M213.519+304.391C213.519+185.992+315.407+90.0106+441.092+90.0106C566.778+90.0106+668.666+185.992+668.666+304.391C668.666+422.791+566.778+518.772+441.092+518.772C315.407+518.772+213.519+422.791+213.519+304.391Z" opacity="1" fill="#dfdfdf"/>
<path d="M235.507+603.425C235.507+526.314+318.199+463.803+420.204+463.803C522.209+463.803+604.901+526.314+604.901+603.425C604.901+680.536+522.209+743.048+420.204+743.048C318.199+743.048+235.507+680.536+235.507+603.425Z" opacity="1" fill="#dfdfdf"/>
<path d="M536.331+572.078C536.331+468.251+636.743+384.082+760.607+384.082C884.47+384.082+984.882+468.251+984.882+572.078C984.882+675.905+884.47+760.074+760.607+760.074C636.743+760.074+536.331+675.905+536.331+572.078Z" opacity="1" fill="#dfdfdf"/>
<path d="M523.547+313.187C523.547+219.074+612.145+142.781+721.437+142.781C830.728+142.781+919.327+219.074+919.327+313.187C919.327+407.299+830.728+483.592+721.437+483.592C612.145+483.592+523.547+407.299+523.547+313.187Z" opacity="1" fill="#dfdfdf"/>
</g>
<path d="M484.223+383.717L644.618+383.717C671.82+383.717+693.872+405.768+693.872+432.971L693.872+536.108C693.872+563.31+671.82+585.362+644.618+585.362L484.223+585.362C457.021+585.362+434.969+563.31+434.969+536.108L434.969+432.971C434.969+405.768+457.021+383.717+484.223+383.717Z" opacity="1" fill="#dfdfdf"/>
</g>
</g>
</svg>
