<?xml version="1.0" encoding="UTF-8" standalone="no"?> <!-- Created with Vectornator for iOS (http://vectornator.io/) --><!DOCTYPE svg PUBLIC "-//W3C//DTD SVG 1.1//EN" "http://www.w3.org/Graphics/SVG/1.1/DTD/svg11.dtd">
<svg style="fill-rule:evenodd;clip-rule:evenodd;stroke-linecap:round;stroke-linejoin:round;" xmlns:vectornator="http://vectornator.io" xmlns:xlink="http://www.w3.org/1999/xlink" xmlns="http://www.w3.org/2000/svg" xml:space="preserve" version="1.1" viewBox="0 0 1000 1000">
<metadata>
<vectornator:setting key="DisplayWhiteBackground" value="0"/>
<vectornator:setting key="RulersVisible" value="1"/>
<vectornator:setting key="GridSpacing" value="36"/>
<vectornator:setting key="Units" value="Pixels"/>
<vectornator:setting key="New" value="1"/>
<vectornator:setting key="DynamicGuides" value="0"/>
<vectornator:setting key="SnapToPoints" value="0"/>
<vectornator:setting key="SnapToGrid" value="0"/>
<vectornator:setting key="SnapToGuides" value="1"/>
<vectornator:setting key="SnapToEdges" value="0"/>
</metadata>
<defs/>
<g id="Layer 1" vectornator:layerName="Layer 1">
<path d="M316.209+763.777L695.235+763.777C705.358+763.777+713.564+771.983+713.564+782.106L713.564+838.695C713.564+848.818+705.358+857.024+695.235+857.024L316.209+857.024C306.086+857.024+297.88+848.818+297.88+838.695L297.88+782.106C297.88+771.983+306.086+763.777+316.209+763.777Z" opacity="1" fill="#3e4350"/>
<path vectornator:shadowColor="#000000" vectornator:shadowOpacity="0.341146" vectornator:shadowRadius="4.09582" d="M50.9048+142.976L949.095+142.976C959.218+142.976+967.424+151.182+967.424+161.305L967.424+659.887C967.424+670.01+959.218+678.216+949.095+678.216L50.9048+678.216C40.782+678.216+32.5758+670.01+32.5758+659.887L32.5758+161.305C32.5758+151.182+40.782+142.976+50.9048+142.976Z" vectornator:shadowOffset="24.6606" fill="#3e4350" opacity="1" vectornator:shadowAngle="0.537681"/>
<path d="M187.126+254.176L825.432+254.176C833.443+254.176+839.937+261.384+839.937+270.275L839.937+520.608C839.937+529.499+833.443+536.707+825.432+536.707L187.126+536.707C179.115+536.707+172.621+529.499+172.621+520.608L172.621+270.275C172.621+261.384+179.115+254.176+187.126+254.176Z" fill-opacity="0.125" fill="#ffffff" opacity="1"/>
<path d="M452.81+443.118L544.217+443.118C552.228+443.118+558.722+449.612+558.722+457.623L558.722+777.429C558.722+785.44+552.228+791.934+544.217+791.934L452.81+791.934C444.799+791.934+438.305+785.44+438.305+777.429L438.305+457.623C438.305+449.612+444.799+443.118+452.81+443.118Z" opacity="1" fill="#35383e"/>
<path d="M527.301+453.424L536.378+453.424C544.388+453.424+550.882+459.919+550.882+467.929L550.882+771.439C550.882+779.449+544.388+785.944+536.378+785.944L527.301+785.944C519.29+785.944+512.796+779.449+512.796+771.439L512.796+467.929C512.796+459.919+519.29+453.424+527.301+453.424Z" fill-opacity="0.0833333" fill="#000000" opacity="1"/>
<path d="M793.128+269.792L812.955+269.792C820.966+269.792+827.46+277.164+827.46+286.257L827.46+508.645C827.46+517.738+820.966+525.11+812.955+525.11L793.128+525.11C785.117+525.11+778.623+517.738+778.623+508.645L778.623+286.257C778.623+277.164+785.117+269.792+793.128+269.792Z" fill-opacity="0.0833333" fill="#000000" opacity="1"/>
<path d="M457.017+465.391L457.017+465.391C461.613+465.391+465.339+469.117+465.339+473.713L465.339+518.721C465.339+523.317+461.613+527.043+457.017+527.043L457.017+527.043C452.421+527.043+448.695+523.317+448.695+518.721L448.695+473.713C448.695+469.117+452.421+465.391+457.017+465.391Z" fill-opacity="0.0546875" fill="#ffffff" opacity="1"/>
</g>
</svg>
