<?xml version="1.0" encoding="UTF-8" standalone="no"?> <!-- Created with Vectornator for iOS (http://vectornator.io/) --><!DOCTYPE svg PUBLIC "-//W3C//DTD SVG 1.1//EN" "http://www.w3.org/Graphics/SVG/1.1/DTD/svg11.dtd">
<svg style="fill-rule:evenodd;clip-rule:evenodd;stroke-linecap:round;stroke-linejoin:round;" xmlns:vectornator="http://vectornator.io" xmlns:xlink="http://www.w3.org/1999/xlink" xmlns="http://www.w3.org/2000/svg" xml:space="preserve" version="1.1" viewBox="0 0 512 512">
<metadata>
<vectornator:setting key="DynamicGuides" value="1"/>
<vectornator:setting key="Units" value="Points"/>
<vectornator:setting key="GuidesVisible" value="1"/>
<vectornator:setting key="RulersVisible" value="1"/>
<vectornator:setting key="SnapToGuides" value="1"/>
<vectornator:setting key="GridSpacing" value="36"/>
</metadata>
<defs/>
<g id="Untitled" vectornator:layerName="Untitled">
<path d="M353.323+36.5181L333.698+36.9556L317.542+65.2994L296.105+69.8619L272.917+70.9869L269.511+86.9244L284.355+105.612L284.792+124.831L269.698+148.549L280.761+167.737L301.948+163.174L326.73+176.987L333.761+197.549L355.042+198.518L363.48+174.643L390.448+161.674L407.542+167.393L420.386+143.987L401.542+126.643L401.261+102.018L418.73+84.2056L403.792+64.8931L383.98+73.8931L361.136+60.8306L353.323+36.5181ZM344.948+88.5806C360.626+88.5806+373.323+101.539+373.323+117.518C373.323+133.497+360.626+146.456+344.948+146.456C329.271+146.456+316.542+133.497+316.542+117.518C316.542+101.539+329.271+88.5806+344.948+88.5806Z" fill-rule="evenodd" fill="#403d56" opacity="1"/>
<g opacity="1">
<path d="M500.5+423.5L475.477+423.5C477.405+419.744+478.5+415.494+478.5+410.99L478.492+207.495C478.492+203.352+475.134+199.995+470.992+199.995C466.849+199.995+463.492+203.353+463.492+207.495L463.5+410.99C463.5+417.883+457.893+423.49+451+423.49L61.01+423.5C54.117+423.5+48.51+417.893+48.51+411L48.5+151.01C48.5+144.117+54.107+138.51+61+138.51L260.009+138.501C257.43+143.053+257.045+148.585+259.071+153.501L232.487+153.502C232.472+153.502+232.457+153.5+232.442+153.5L218.867+153.5C218.846+153.5+218.826+153.502+218.806+153.502L71+153.51C66.857+153.51+63.5+156.868+63.5+161.01L63.507+319.402C63.507+323.545+66.865+326.902+71.007+326.902C75.15+326.902+78.507+323.544+78.507+319.402L78.5+168.51L201.669+168.504C200.646+172.591+199.501+177.591+198.958+181.445C198.869+182.08+198.468+182.658+197.885+182.994L185.343+190.218C184.759+190.556+184.054+190.616+183.454+190.373C179.195+188.656+173.107+186.854+168.748+185.645C161.193+183.549+153.168+186.822+149.243+193.604L142.465+205.316C138.528+212.118+139.705+220.712+145.326+226.215C148.547+229.367+153.144+233.718+156.764+236.538C157.266+236.928+157.565+237.56+157.565+238.229L157.565+252.659C157.565+253.328+157.265+253.962+156.764+254.352C153.144+257.171+148.546+261.522+145.326+264.674C139.705+270.177+138.528+278.772+142.465+285.573L149.243+297.285C153.168+304.067+161.189+307.344+168.75+305.243C173.107+304.035+179.195+302.233+183.457+300.515C184.051+300.275+184.757+300.333+185.342+300.67L197.885+307.894C198.468+308.23+198.869+308.809+198.958+309.443C199.598+313.982+201.073+320.122+202.198+324.471C204.164+332.076+211.018+337.388+218.866+337.388L232.441+337.388C240.289+337.388+247.143+332.076+249.108+324.472C250.234+320.121+251.709+313.982+252.349+309.443C252.439+308.809+252.84+308.23+253.422+307.894L265.966+300.67C266.55+300.333+267.254+300.274+267.853+300.516C272.112+302.233+278.2+304.035+282.559+305.244C290.113+307.337+298.139+304.067+302.064+297.285L308.842+285.573C312.779+278.771+311.602+270.177+305.981+264.674C302.76+261.522+298.163+257.171+294.543+254.353C294.041+253.961+293.741+253.328+293.741+252.659L293.741+238.229C293.741+237.56+294.04+236.927+294.542+236.537C298.162+233.718+302.76+229.367+305.98+226.215C311.601+220.712+312.778+212.117+308.841+205.316L302.063+193.604C298.138+186.822+290.118+183.547+282.556+185.646C278.199+186.854+272.111+188.656+267.849+190.374C267.255+190.612+266.549+190.555+265.964+190.219L253.42+182.993C252.838+182.658+252.437+182.08+252.348+181.446C251.804+177.591+250.659+172.589+249.637+168.502L267.627+168.501C271.768+174.452+279.268+177.216+286.361+175.245C290.72+174.036+296.81+172.234+301.068+170.517C301.662+170.278+302.368+170.335+302.953+170.672L315.496+177.896C316.079+178.232+316.48+178.811+316.569+179.445C317.21+183.984+318.684+190.124+319.809+194.473C321.775+202.078+328.629+207.39+336.477+207.39L350.052+207.39C357.9+207.39+364.754+202.078+366.719+194.474C367.845+190.123+369.321+183.984+369.96+179.445C370.05+178.811+370.451+178.232+371.033+177.896L383.576+170.672C384.162+170.335+384.866+170.276+385.464+170.518C389.723+172.235+395.811+174.037+400.17+175.246C407.259+177.211+414.761+174.452+418.902+168.501L433.488+168.501L433.498+393.491L78.51+393.5L78.508+351.773C78.508+347.63+75.15+344.273+71.008+344.273C66.865+344.273+63.508+347.631+63.508+351.773L63.51+401C63.51+405.143+66.868+408.5+71.01+408.5L441+408.49C442.989+408.49+444.897+407.7+446.304+406.293C447.71+404.887+448.5+402.98+448.5+400.99L448.49+161C448.49+156.857+445.132+153.5+440.99+153.5L427.461+153.5C429.487+148.584+429.101+143.052+426.522+138.5L450.99+138.5C457.883+138.5+463.49+144.107+463.49+151L463.491+175.681C463.491+179.824+466.849+183.181+470.991+183.181C475.134+183.181+478.491+179.823+478.491+175.681L478.49+151C478.49+135.837+466.153+123.5+450.99+123.5L411.529+123.5C411.421+123.237+411.354+122.954+411.354+122.659L411.354+108.229C411.354+107.56+411.653+106.928+412.157+106.537C415.776+103.716+420.374+99.366+423.594+96.215C429.215+90.712+430.392+82.117+426.455+75.316L419.677+63.604C415.752+56.822+407.73+53.545+400.17+55.646C395.808+56.856+389.716+58.658+385.463+60.374C384.869+60.612+384.163+60.555+383.578+60.219L371.034+52.993C370.452+52.658+370.051+52.08+369.962+51.446C369.321+46.903+367.846+40.765+366.722+36.418C364.756+28.813+357.902+23.501+350.054+23.501L336.479+23.501C328.631+23.501+321.777+28.813+319.812+36.417C318.687+40.766+317.211+46.903+316.571+51.445C316.482+52.08+316.081+52.658+315.498+52.994L302.956+60.218C302.369+60.557+301.664+60.614+301.07+60.374C296.821+58.66+290.727+56.856+286.361+55.645C278.806+53.55+270.781+56.822+266.856+63.604L260.078+75.316C256.141+82.118+257.318+90.712+262.939+96.215C266.157+99.365+270.753+103.713+274.377+106.538C274.879+106.928+275.178+107.56+275.178+108.229L275.178+122.659C275.178+122.953+275.111+123.237+275.003+123.5L61+123.51C45.837+123.51+33.5+135.847+33.5+151.01L33.51+411C33.51+415.5+34.604+419.747+36.528+423.5L11.5+423.5C5.15899+423.5-7.77468e-06+428.659-7.77468e-06+435L-7.77468e-06+455C-7.77468e-06+473.472+15.028+488.5+33.5+488.5L383.865+488.5C388.008+488.5+391.365+485.143+391.365+481C391.365+476.857+388.008+473.5+383.865+473.5L33.5+473.5C23.299+473.5+15+465.201+15+455L15+438.5L202.5+438.5L202.5+443C202.5+453.752+211.248+462.5+222+462.5L290+462.5C300.752+462.5+309.5+453.752+309.5+443L309.5+438.5L497+438.5L497+455C497+465.201+488.701+473.5+478.5+473.5L416.236+473.5C412.093+473.5+408.736+476.857+408.736+481C408.736+485.143+412.093+488.5+416.236+488.5L478.5+488.5C496.972+488.5+512+473.472+512+455L512+435C512+428.659+506.841+423.5+500.5+423.5ZM234.587+170.172C236.04+175.792+237.073+180.539+237.496+183.54C238.237+188.792+241.314+193.33+245.936+195.991L258.48+203.217C263.094+205.873+268.554+206.262+273.46+204.284C276.278+203.148+280.933+201.662+286.564+200.099C287.541+199.826+288.576+200.245+289.081+201.117L295.859+212.829C296.36+213.694+296.207+214.791+295.486+215.496C291.325+219.57+287.715+222.841+285.323+224.704C281.14+227.963+278.741+232.892+278.741+238.229L278.741+252.659C278.741+257.995+281.139+262.925+285.323+266.184C287.716+268.048+291.325+271.319+295.486+275.393C296.207+276.098+296.36+277.195+295.859+278.06L289.081+289.772C288.576+290.643+287.537+291.058+286.566+290.791C280.932+289.228+276.278+287.741+273.462+286.606C268.551+284.626+263.091+285.015+258.478+287.673L245.935+294.897C241.312+297.56+238.236+302.099+237.495+307.349L237.495+307.35C237.072+310.35+236.039+315.097+234.585+320.718C234.331+321.701+233.449+322.389+232.44+322.389L218.865+322.389C217.856+322.389+216.974+321.701+216.719+320.717C215.266+315.097+214.233+310.35+213.81+307.349C213.069+302.099+209.993+297.56+205.37+294.897L192.828+287.673C190.158+286.135+187.206+285.357+184.241+285.357C182.08+285.357+179.913+285.771+177.845+286.605C175.027+287.741+170.372+289.227+164.741+290.79C163.762+291.064+162.728+290.643+162.224+289.772L155.446+278.06C154.945+277.195+155.098+276.098+155.819+275.393C159.98+271.319+163.59+268.048+165.983+266.183C170.166+262.924+172.564+257.995+172.564+252.659L172.564+238.229C172.564+232.892+170.165+227.962+165.982+224.705C163.589+222.841+159.98+219.57+155.819+215.496C155.098+214.791+154.945+213.694+155.446+212.829L162.224+201.117C162.729+200.246+163.769+199.83+164.739+200.098C170.373+201.661+175.027+203.148+177.843+204.283C182.75+206.262+188.21+205.874+192.827+203.216L205.369+195.992C209.992+193.33+213.069+188.792+213.81+183.539C214.233+180.539+215.266+175.792+216.72+170.171C216.971+169.198+217.838+168.517+218.833+168.503L232.463+168.502C233.464+168.513+234.334+169.195+234.587+170.172ZM273.433+85.496C272.712+84.791+272.559+83.694+273.06+82.829L279.838+71.117C280.342+70.246+281.381+69.83+282.353+70.098C287.996+71.663+292.649+73.15+295.457+74.283C300.364+76.263+305.825+75.874+310.441+73.216L322.983+65.992C327.606+63.33+330.683+58.792+331.424+53.539C331.847+50.537+332.88+45.79+334.334+40.171C334.588+39.188+335.47+38.5+336.479+38.5L350.054+38.5C351.063+38.5+351.945+39.188+352.2+40.172C353.653+45.79+354.686+50.537+355.109+53.54C355.85+58.792+358.927+63.33+363.549+65.991L376.094+73.217C380.709+75.874+386.169+76.264+391.075+74.283C393.886+73.149+398.54+71.664+404.178+70.099C405.153+69.826+406.191+70.245+406.695+71.117L413.473+82.829C413.974+83.694+413.821+84.791+413.1+85.496C408.94+89.569+405.33+92.841+402.94+94.703C398.755+97.962+396.355+102.891+396.355+108.229L396.355+122.659C396.355+127.996+398.754+132.926+402.937+136.184C405.331+138.048+408.94+141.32+413.1+145.393C413.821+146.098+413.974+147.195+413.473+148.06L406.695+159.772C406.191+160.643+405.152+161.059+404.18+160.791C398.546+159.228+393.892+157.741+391.076+156.606C386.17+154.627+380.707+155.014+376.092+157.673L363.549+164.897C358.926+167.56+355.85+172.099+355.109+177.349L355.109+177.35C354.686+180.35+353.653+185.097+352.199+190.718C351.945+191.701+351.063+192.389+350.054+192.389L336.479+192.389C335.47+192.389+334.588+191.701+334.333+190.717C332.88+185.097+331.847+180.35+331.424+177.349C330.683+172.099+327.607+167.56+322.984+164.897L310.442+157.673C307.772+156.135+304.82+155.357+301.855+155.357C299.694+155.357+297.527+155.771+295.459+156.605C292.645+157.74+287.99+159.226+282.355+160.79C281.378+161.063+280.342+160.644+279.838+159.772L278.51+157.477C278.468+157.398+278.421+157.323+278.377+157.247L273.06+148.06C272.559+147.195+272.712+146.098+273.433+145.393C277.591+141.322+281.201+138.051+283.597+136.183C287.78+132.924+290.178+127.995+290.178+122.659L290.178+108.229C290.178+102.892+287.779+97.962+283.597+94.705C281.2+92.838+277.591+89.567+273.433+85.496ZM294.5+443C294.5+445.481+292.481+447.5+290+447.5L222+447.5C219.519+447.5+217.5+445.481+217.5+443L217.5+438.5L294.5+438.5L294.5+443Z" fill-rule="evenodd" fill="#f7f7f7" opacity="1"/>
<path d="M343.267+156.286C365.832+156.286+384.191+137.965+384.191+115.444C384.191+92.924+365.833+74.603+343.267+74.603C320.701+74.603+302.343+92.924+302.343+115.444C302.343+137.965+320.701+156.286+343.267+156.286ZM331.58+138.5L354.954+138.5C351.439+140.277+347.47+141.286+343.267+141.286C339.064+141.286+335.094+140.277+331.58+138.5ZM343.267+89.604C357.562+89.604+369.191+101.196+369.191+115.445C369.191+118.258+368.732+120.964+367.894+123.501L318.64+123.501C317.803+120.964+317.343+118.258+317.343+115.445C317.343+101.195+328.972+89.604+343.267+89.604Z" fill-rule="evenodd" fill="#f7f7f7" opacity="1"/>
<path d="M184.73+245.444C184.73+267.965+203.088+286.286+225.654+286.286C248.22+286.286+266.578+267.965+266.578+245.444C266.578+222.924+248.22+204.603+225.654+204.603C203.088+204.603+184.73+222.925+184.73+245.444ZM251.578+245.444C251.578+259.693+239.949+271.286+225.654+271.286C211.359+271.286+199.73+259.693+199.73+245.444C199.73+231.195+211.359+219.603+225.654+219.603C239.949+219.603+251.578+231.195+251.578+245.444Z" fill-rule="evenodd" fill="#f7f7f7" opacity="1"/>
</g>
</g>
</svg>
