<?xml version="1.0" encoding="UTF-8" standalone="no"?> <!-- Created with Vectornator for iOS (http://vectornator.io/) --><!DOCTYPE svg PUBLIC "-//W3C//DTD SVG 1.1//EN" "http://www.w3.org/Graphics/SVG/1.1/DTD/svg11.dtd">
<svg style="fill-rule:evenodd;clip-rule:evenodd;stroke-linecap:round;stroke-linejoin:round;" xmlns:vectornator="http://vectornator.io" xmlns:xlink="http://www.w3.org/1999/xlink" xmlns="http://www.w3.org/2000/svg" xml:space="preserve" version="1.1" viewBox="0 0 64 64">
<metadata>
<vectornator:setting key="DynamicGuides" value="1"/>
<vectornator:setting key="Units" value="Points"/>
<vectornator:setting key="GuidesVisible" value="1"/>
<vectornator:setting key="RulersVisible" value="1"/>
<vectornator:setting key="SnapToGuides" value="1"/>
<vectornator:setting key="GridSpacing" value="36"/>
</metadata>
<defs/>
<g id="Untitled" vectornator:layerName="Untitled">
<path d="M45.079+45L50+45L50+48C50+51.86+46.859+55+43+55L16+55C12.141+55+9+51.86+9+48L9+47L0.999999+47L0.999999+48C0.999999+56.271+7.729+63+16+63L43+63C51.271+63+58+56.271+58+48L58+45L62.921+45L54+32.256L45.079+45ZM56+43L56+48C56+55.168+50.168+61+43+61L16+61C9.168+61+3.551+55.703+3.038+49L7.056+49C7.555+53.494+11.375+57+16+57L43+57C47.963+57+52+52.962+52+48L52+43L48.921+43L54+35.744L59.079+43L56+43Z" fill-rule="evenodd" fill="#f7f7f7" opacity="1"/>
<path d="M48+1L21+1C12.729+1+6+7.729+6+16L6+19L1.079+19L10+31.744L18.921+19L14+19L14+16C14+12.14+17.141+9+21+9L48+9C51.859+9+55+12.14+55+16L55+17L63+17L63+16C63+7.729+56.271+1+48+1ZM56.944+15C56.445+10.506+52.625+7+48+7L21+7C16.037+7+12+11.038+12+16L12+21L15.079+21L10+28.256L4.921+21L8+21L8+16C8+8.832+13.832+3+21+3L48+3C54.832+3+60.449+8.297+60.962+15L56.944+15Z" fill-rule="evenodd" fill="#f7f7f7" opacity="1"/>
<path d="M41+11L43+11L43+13L41+13L41+11Z" fill-rule="evenodd" fill="#403d56" opacity="1"/>
<path d="M53+17L53+16C53+13.243+50.757+11+48+11L45+11L45+13L48+13C49.654+13+51+14.346+51+16L51+17L53+17Z" fill-rule="evenodd" fill="#403d56" opacity="1"/>
<path d="M19+44L19+53L45+53L45+44C45+38.459+41.509+33.73+36.616+31.862C39.811+30.191+42+26.849+42+23C42+17.486+37.514+13+32+13C26.486+13+22+17.486+22+23C22+26.849+24.189+30.191+27.384+31.862C22.491+33.73+19+38.459+19+44ZM21+44C21+41.897+21.603+39.938+22.631+38.266L21.917+44.693L24.59+45.584L23.819+47.125L26.919+51L21+51L21+44ZM39.917+43.307L36.59+44.416L37.819+46.875L34.519+51L33.297+51L37.623+34.563C38.127+34.865+38.61+35.198+39.058+35.574L39.917+43.307ZM24.083+43.307L24.943+35.573C25.391+35.197+25.874+34.864+26.378+34.562L30.703+51L29.481+51L26.181+46.875L27.41+44.416L24.083+43.307ZM43+51L37.081+51L40.181+47.125L39.41+45.584L42.083+44.693L41.369+38.266C42.397+39.938+43+41.897+43+44L43+51ZM24+23C24+18.589+27.589+15+32+15C36.411+15+40+18.589+40+23C40+27.411+36.411+31+32+31C27.589+31+24+27.411+24+23ZM35.786+33.685L32+48.072L28.214+33.686C29.397+33.25+30.668+33+32+33C33.332+33+34.603+33.25+35.786+33.685Z" fill-rule="evenodd" fill="#f7f7f7" opacity="1"/>
<path d="M37.5879+34.3349L32.8202+51.122L34.7199+51.3207L38.0053+47.0827L37.5522+44.6564L40.4054+43.4807L39.3945+35.4233L37.5879+34.3349Z" fill-rule="evenodd" fill="#403d56" opacity="1"/>
<path d="M26.4091+34.3349L31.1768+51.122L29.2771+51.3207L25.9917+47.0827L26.4448+44.6564L23.5916+43.4807L24.6025+35.4233L26.4091+34.3349Z" fill-rule="evenodd" fill="#403d56" opacity="1"/>
</g>
</svg>
