<?xml version="1.0" encoding="UTF-8" standalone="no"?> <!-- Created with Vectornator for iOS (http://vectornator.io/) --><!DOCTYPE svg PUBLIC "-//W3C//DTD SVG 1.1//EN" "http://www.w3.org/Graphics/SVG/1.1/DTD/svg11.dtd">
<svg style="fill-rule:evenodd;clip-rule:evenodd;stroke-linecap:round;stroke-linejoin:round;" xmlns:vectornator="http://vectornator.io" xmlns:xlink="http://www.w3.org/1999/xlink" xmlns="http://www.w3.org/2000/svg" xml:space="preserve" version="1.1" viewBox="0 0 64 64">
<metadata>
<vectornator:setting key="DynamicGuides" value="1"/>
<vectornator:setting key="Units" value="Points"/>
<vectornator:setting key="GuidesVisible" value="1"/>
<vectornator:setting key="RulersVisible" value="1"/>
<vectornator:setting key="SnapToGuides" value="1"/>
<vectornator:setting key="GridSpacing" value="36"/>
</metadata>
<defs/>
<g id="Untitled" vectornator:layerName="Untitled">
<path d="M43.1738+17.0793L43.2824+21.3048L45.7704+23.5113L48.3495+21.2887L48.3575+16.5739L51.1242+18.0314L51.7693+21.4854L49.8959+25.3884L47.7179+26.5617L47.5021+33.1783L44.1225+33.2433L43.7309+26.8808L41.3154+24.772L40.2603+21.3956L41.2931+17.8269L43.1738+17.0793Z" fill-rule="evenodd" fill="#403d56" opacity="1"/>
<path d="M15.2341+17.0793L15.3427+21.3048L17.8307+23.5113L20.4098+21.2887L20.4178+16.5739L23.1846+18.0314L23.8296+21.4854L21.9562+25.3884L19.7782+26.5617L19.5625+33.1783L16.1828+33.2433L15.7913+26.8808L13.3757+24.772L12.3206+21.3956L13.3534+17.8269L15.2341+17.0793Z" fill-rule="evenodd" fill="#403d56" opacity="1"/>
<path d="M29.9278+16.9091L34.0475+16.9508L34.0356+19.748L33.1136+21.7358L33.1038+28.6814L30.912+28.6814L30.8964+21.5674L29.8373+19.7266L29.9278+16.9091Z" fill-rule="evenodd" fill="#403d56" opacity="1"/>
<path d="M62+33L61+33L61+10C61+7.243+58.757+5+56+5L38+5L38+2C38+1.448+37.552+1+37+1L27+1C26.448+1+26+1.448+26+2L26+5L8+5C5.243+5+3+7.243+3+10L3+33L2+33C1.448+33+1+33.448+1+34L1+57C1+60.309+3.691+63+7+63L57+63C60.309+63+63+60.309+63+57L63+34C63+33.448+62.552+33+62+33ZM28+3L36+3L36+5L28+5L28+3ZM5+10C5+8.346+6.346+7+8+7L56+7C57.654+7+59+8.346+59+10L59+33L57+33L57+10C57+9.448+56.552+9+56+9L8+9C7.448+9+7+9.448+7+10L7+33L5+33L5+10ZM30.895+21.553L30+19.764L30+17L34+17L34+19.764L33.105+21.553C33.036+21.691+33+21.845+33+22L33+28L31+28L31+22C31+21.845+30.964+21.691+30.895+21.553ZM35+30L35+33L29+33L29+30L35+30ZM28+35L36+35L36+39L28+39L28+35ZM37+33L37+29C37+28.448+36.552+28+36+28L35+28L35+22.236L35.895+20.447C35.964+20.309+36+20.155+36+20L36+16C36+15.448+35.552+15+35+15L29+15C28.448+15+28+15.448+28+16L28+20C28+20.155+28.036+20.309+28.105+20.447L29+22.236L29+28L28+28C27.448+28+27+28.448+27+29L27+33L21+33L21+27.667C23.419+26.518+25+24.062+25+21.348C25+18.392+23.125+15.742+20.334+14.754C20.027+14.647+19.688+14.692+19.423+14.88C19.158+15.068+19+15.373+19+15.697L19+20.934L18+21.934L17+20.934L17+15.697C17+15.372+16.842+15.068+16.577+14.881C16.312+14.693+15.973+14.648+15.666+14.755C12.875+15.743+11+18.393+11+21.349C11+24.063+12.581+26.519+15+27.668L15+33L9+33L9+11L55+11L55+33L49+33L49+27.667C51.419+26.518+53+24.062+53+21.348C53+18.392+51.125+15.742+48.334+14.754C48.028+14.647+47.688+14.692+47.423+14.88C47.158+15.068+47+15.373+47+15.697L47+20.934L46+21.934L45+20.934L45+15.697C45+15.372+44.842+15.068+44.577+14.881C44.312+14.693+43.972+14.648+43.666+14.755C40.875+15.743+39+18.393+39+21.349C39+24.063+40.581+26.519+43+27.668L43+33L37+33ZM11+43L17+43L17+45L11+45L11+43ZM17+41L11+41L11+35L17+35L17+41ZM16.334+26.057C14.34+25.351+13+23.459+13+21.349C13+19.754+13.765+18.284+15+17.356L15+21.349C15+21.614+15.105+21.869+15.293+22.056L17.293+24.056C17.684+24.447+18.316+24.447+18.707+24.056L20.707+22.056C20.895+21.868+21+21.614+21+21.349L21+17.356C22.235+18.284+23+19.754+23+21.349C23+23.459+21.66+25.351+19.666+26.057C19.267+26.199+19+26.576+19+27L19+33L17+33L17+27C17+26.576+16.733+26.199+16.334+26.057ZM44.334+26.057C42.34+25.351+41+23.459+41+21.349C41+19.754+41.765+18.284+43+17.356L43+21.349C43+21.614+43.105+21.869+43.293+22.056L45.293+24.056C45.684+24.447+46.316+24.447+46.707+24.056L48.707+22.056C48.895+21.868+49+21.614+49+21.349L49+17.356C50.235+18.284+51+19.754+51+21.349C51+23.459+49.66+25.351+47.666+26.057C47.267+26.199+47+26.576+47+27L47+33L45+33L45+27C45+26.576+44.733+26.199+44.334+26.057ZM47+43L53+43L53+45L47+45L47+43ZM53+41L47+41L47+35L53+35L53+41ZM61+57C61+59.206+59.206+61+57+61L7+61C4.794+61+3+59.206+3+57L3+35L9+35L9+46C9+46.552+9.448+47+10+47L18+47C18.552+47+19+46.552+19+46L19+35L26+35L26+40C26+40.552+26.448+41+27+41L37+41C37.552+41+38+40.552+38+40L38+35L45+35L45+46C45+46.552+45.448+47+46+47L54+47C54.552+47+55+46.552+55+46L55+35L61+35L61+57Z" fill-rule="evenodd" fill="#f7f7f7" opacity="1"/>
<g opacity="1">
<path d="M47.6508+59.5963L49.6508+59.5963L49.6508+57.5963L47.6508+57.5963L47.6508+59.5963Z" fill-rule="evenodd" fill="#403d56" opacity="1"/>
<path d="M59.6508+53.5963L59.6508+54.5963C59.6508+57.3533+57.4078+59.5963+54.6508+59.5963L51.6508+59.5963L51.6508+57.5963L54.6508+57.5963C56.3048+57.5963+57.6508+56.2503+57.6508+54.5963L57.6508+53.5963L59.6508+53.5963Z" fill-rule="evenodd" fill="#403d56" opacity="1"/>
</g>
</g>
</svg>
