<?xml version="1.0" encoding="UTF-8" standalone="no"?> <!-- Created with Vectornator for iOS (http://vectornator.io/) --><!DOCTYPE svg PUBLIC "-//W3C//DTD SVG 1.1//EN" "http://www.w3.org/Graphics/SVG/1.1/DTD/svg11.dtd">
<svg height="100%" style="fill-rule:evenodd;clip-rule:evenodd;stroke-linecap:round;stroke-linejoin:round;" xmlns:xlink="http://www.w3.org/1999/xlink" xmlns="http://www.w3.org/2000/svg" xml:space="preserve" width="100%" xmlns:vectornator="http://vectornator.io" version="1.1" viewBox="0 0 882.346 778.999">
<metadata>
<vectornator:setting key="DynamicGuides" value="1"/>
<vectornator:setting key="Units" value="Points"/>
<vectornator:setting key="GuidesVisible" value="1"/>
<vectornator:setting key="RulersVisible" value="1"/>
<vectornator:setting key="SnapToGuides" value="1"/>
<vectornator:setting key="GridSpacing" value="36"/>
</metadata>
<defs/>
<g id="Untitled" vectornator:layerName="Untitled">
<path d="M342.362+20.0599L345.831+14.6979C344.803+11.8557+343.614+9.07381+342.272+6.36544L340.028+8.17749L341.805+5.43215C340.112+2.09965+338.78-1.28538e-06+338.78-1.28538e-06C338.78-1.28538e-06+331.822+10.9651+329.497+22.5747L333.949+29.4554L329.02+25.4744C328.845+26.8268+328.754+28.1889+328.75+29.5526C328.75+43.3022+333.24+54.4484+338.78+54.4484C344.319+54.4484+348.81+43.3022+348.81+29.5526C348.706+25.1781+347.932+20.8454+346.515+16.7053L342.362+20.0599Z" opacity="1" fill="#e6e6e6"/>
<path d="M366.92+31.9801L373.165+30.6419C374.447+27.9046+375.574+25.0972+376.54+22.2329L373.672+21.9279L376.869+21.2427C378.029+17.6892+378.571+15.2626+378.571+15.2626C378.571+15.2626+365.898+18.0958+356.045+24.6612L354.327+32.6748L353.657+26.3747C352.577+27.2068+351.55+28.1061+350.582+29.0672C340.86+38.7896+336.154+49.8465+340.071+53.7634C343.988+57.6804+355.044+52.9741+364.767+43.2517C367.787+40.085+370.303+36.4741+372.229+32.5448L366.92+31.9801Z" opacity="1" fill="#e6e6e6"/>
<path d="M369.201+85.184C354.72+86.1103+338.941+85.1301+322.155+85.184L322.155+46.7521C336.946+49.0548+352.72+48.8183+369.201+46.7521L369.201+85.184Z" opacity="1" fill="#e6e6e6"/>
<path d="M472.802+115.152L475.064+111.655C474.393+109.801+473.618+107.987+472.743+106.221L471.28+107.402L472.438+105.612C471.334+103.439+470.466+102.07+470.466+102.07C467.678+106.624+465.635+111.594+464.412+116.791L467.315+121.279L464.101+118.682C463.986+119.564+463.928+120.453+463.925+121.342C463.925+130.309+466.853+137.578+470.466+137.578C474.078+137.578+477.007+130.309+477.007+121.342C476.939+118.489+476.434+115.664+475.51+112.964L472.802+115.152Z" opacity="1" fill="#e6e6e6"/>
<path d="M488.817+122.925L492.889+122.052C493.726+120.267+494.46+118.436+495.09+116.569L493.22+116.37L495.305+115.923C496.061+113.605+496.415+112.023+496.415+112.023C491.224+113.272+486.265+115.341+481.725+118.152L480.605+123.378L480.168+119.27C479.463+119.812+478.793+120.399+478.162+121.025C471.822+127.366+468.753+134.577+471.307+137.131C473.862+139.685+481.072+136.616+487.413+130.276C489.382+128.211+491.023+125.856+492.279+123.293L488.817+122.925Z" opacity="1" fill="#e6e6e6"/>
<path d="M490.304+157.622C480.861+158.226+470.571+157.586+459.624+157.622L459.624+132.559C469.801+133.984+480.127+133.984+490.304+132.559L490.304+157.622Z" opacity="1" fill="#e6e6e6"/>
<path d="M484.473+231.898C476.134+232.431+467.048+231.867+457.382+231.898L457.382+209.767C466.368+211.026+475.486+211.026+484.473+209.767L484.473+231.898Z" opacity="1" fill="#e6e6e6"/>
<path d="M167.508+82.4813L532.055+82.4813L532.055+82.4813L532.055+92.6642L532.055+92.6642L167.508+92.6642L167.508+92.6642L167.508+82.4813L167.508+82.4813Z" opacity="1" fill="#e6e6e6"/>
<path d="M167.508+154.78L532.055+154.78L532.055+154.78L532.055+164.963L532.055+164.963L167.508+164.963L167.508+164.963L167.508+154.78L167.508+154.78Z" opacity="1" fill="#e6e6e6"/>
<path d="M167.508+227.078L532.055+227.078L532.055+227.078L532.055+237.261L532.055+237.261L167.508+237.261L167.508+237.261L167.508+227.078L167.508+227.078Z" opacity="1" fill="#e6e6e6"/>
<path d="M450.592+197.548C450.592+186.3+459.71+177.182+470.958+177.182C482.206+177.182+491.324+186.3+491.324+197.548C491.324+208.796+482.206+217.914+470.958+217.914C459.71+217.914+450.592+208.796+450.592+197.548Z" opacity="1" fill="#e6e6e6"/>
<path d="M454.665+197.548C454.665+188.55+461.96+181.255+470.958+181.255C479.956+181.255+487.251+188.55+487.251+197.548C487.251+206.546+479.956+213.84+470.958+213.84C461.96+213.84+454.665+206.546+454.665+197.548Z" opacity="1" fill="#ffffff"/>
<path d="M466.885+197.548C466.885+195.298+468.709+193.475+470.958+193.475C473.208+193.475+475.031+195.298+475.031+197.548C475.031+199.797+473.208+201.621+470.958+201.621C468.709+201.621+466.885+199.797+466.885+197.548Z" opacity="1" fill="#e6e6e6"/>
<path d="M485.214+196.53L485.214+198.566L485.214+198.566L468.922+198.566L468.922+198.566L468.922+196.53L468.922+196.53L485.214+196.53L485.214+196.53Z" opacity="1" fill="#e6e6e6"/>
<path d="M471.976+199.584L469.94+199.584L469.94+199.584L469.94+183.292L469.94+183.292L471.976+183.292L471.976+183.292L471.976+199.584L471.976+199.584Z" opacity="1" fill="#e6e6e6"/>
<path d="M339.725+105.104L353.201+105.104L353.201+105.104L353.201+158.443L353.201+158.443L339.725+158.443L339.725+158.443L339.725+105.104L339.725+105.104Z" opacity="1" fill="#e6e6e6"/>
<path d="M339.725+113.526L353.201+113.526L353.201+113.526L353.201+119.702L353.201+119.702L339.725+119.702L339.725+119.702L339.725+113.526L339.725+113.526Z" opacity="1" fill="#cccccc"/>
<path d="M339.725+140.476L353.201+140.476L353.201+140.476L353.201+146.652L353.201+146.652L339.725+146.652L339.725+146.652L339.725+140.476L339.725+140.476Z" opacity="1" fill="#cccccc"/>
<path d="M318.951+105.104L332.426+105.104L332.426+105.104L332.426+158.443L332.426+158.443L318.951+158.443L318.951+158.443L318.951+105.104L318.951+105.104Z" opacity="1" fill="#e6e6e6"/>
<path d="M318.951+113.526L332.426+113.526L332.426+113.526L332.426+119.702L332.426+119.702L318.951+119.702L318.951+119.702L318.951+113.526L318.951+113.526Z" opacity="1" fill="#cccccc"/>
<path d="M318.951+140.476L332.426+140.476L332.426+140.476L332.426+146.652L332.426+146.652L318.951+146.652L318.951+146.652L318.951+140.476L318.951+140.476Z" opacity="1" fill="#cccccc"/>
<path d="M352.735+110.862L364.811+104.884L364.811+104.884L388.477+152.685L388.477+152.685L376.401+158.664L376.401+158.664L352.735+110.862L352.735+110.862Z" opacity="1" fill="#e6e6e6"/>
<path d="M356.472+118.41L368.548+112.431L368.548+112.431L371.288+117.966L371.288+117.966L359.212+123.945L359.212+123.945L356.472+118.41L356.472+118.41Z" opacity="1" fill="#cccccc"/>
<path d="M368.429+142.562L380.505+136.583L380.505+136.583L383.245+142.118L383.245+142.118L371.169+148.097L371.169+148.097L368.429+142.562L368.429+142.562Z" opacity="1" fill="#cccccc"/>
<path d="M219.567+177.403L233.043+177.403L233.043+177.403L233.043+230.741L233.043+230.741L219.567+230.741L219.567+230.741L219.567+177.403L219.567+177.403Z" opacity="1" fill="#e6e6e6"/>
<path d="M219.567+185.825L233.043+185.825L233.043+185.825L233.043+192.001L233.043+192.001L219.567+192.001L219.567+192.001L219.567+185.825L219.567+185.825Z" opacity="1" fill="#cccccc"/>
<path d="M219.567+212.775L233.043+212.775L233.043+212.775L233.043+218.951L233.043+218.951L219.567+218.951L219.567+218.951L219.567+212.775L219.567+212.775Z" opacity="1" fill="#cccccc"/>
<path d="M198.793+177.403L212.268+177.403L212.268+177.403L212.268+230.741L212.268+230.741L198.793+230.741L198.793+230.741L198.793+177.403L198.793+177.403Z" opacity="1" fill="#e6e6e6"/>
<path d="M198.793+185.825L212.268+185.825L212.268+185.825L212.268+192.001L212.268+192.001L198.793+192.001L198.793+192.001L198.793+185.825L198.793+185.825Z" opacity="1" fill="#cccccc"/>
<path d="M198.793+212.775L212.268+212.775L212.268+212.775L212.268+218.951L212.268+218.951L198.793+218.951L198.793+218.951L198.793+212.775L198.793+212.775Z" opacity="1" fill="#cccccc"/>
<path d="M232.577+183.161L244.653+177.182L244.653+177.182L268.319+224.983L268.319+224.983L256.243+230.962L256.243+230.962L232.577+183.161L232.577+183.161Z" opacity="1" fill="#e6e6e6"/>
<path d="M236.314+190.708L248.39+184.73L248.39+184.73L251.13+190.265L251.13+190.265L239.054+196.243L239.054+196.243L236.314+190.708L236.314+190.708Z" opacity="1" fill="#cccccc"/>
<path d="M248.271+214.861L260.347+208.882L260.347+208.882L263.087+214.417L263.087+214.417L251.011+220.395L251.011+220.395L248.271+214.861L248.271+214.861Z" opacity="1" fill="#cccccc"/>
<path d="M345.835+177.403L359.31+177.403L359.31+177.403L359.31+230.741L359.31+230.741L345.835+230.741L345.835+230.741L345.835+177.403L345.835+177.403Z" opacity="1" fill="#e6e6e6"/>
<path d="M345.835+185.825L359.31+185.825L359.31+185.825L359.31+192.001L359.31+192.001L345.835+192.001L345.835+192.001L345.835+185.825L345.835+185.825Z" opacity="1" fill="#cccccc"/>
<path d="M345.835+212.775L359.31+212.775L359.31+212.775L359.31+218.951L359.31+218.951L345.835+218.951L345.835+218.951L345.835+212.775L345.835+212.775Z" opacity="1" fill="#cccccc"/>
<path d="M325.061+177.403L338.536+177.403L338.536+177.403L338.536+230.741L338.536+230.741L325.061+230.741L325.061+230.741L325.061+177.403L325.061+177.403Z" opacity="1" fill="#e6e6e6"/>
<path d="M325.061+185.825L338.536+185.825L338.536+185.825L338.536+192.001L338.536+192.001L325.061+192.001L325.061+192.001L325.061+185.825L325.061+185.825Z" opacity="1" fill="#cccccc"/>
<path d="M325.061+212.775L338.536+212.775L338.536+212.775L338.536+218.951L338.536+218.951L325.061+218.951L325.061+218.951L325.061+212.775L325.061+212.775Z" opacity="1" fill="#cccccc"/>
<path d="M358.845+183.161L370.921+177.182L370.921+177.182L394.587+224.983L394.587+224.983L382.51+230.962L382.51+230.962L358.845+183.161L358.845+183.161Z" opacity="1" fill="#e6e6e6"/>
<path d="M362.581+190.708L374.657+184.73L374.657+184.73L377.398+190.265L377.398+190.265L365.321+196.243L365.321+196.243L362.581+190.708L362.581+190.708Z" opacity="1" fill="#cccccc"/>
<path d="M374.539+214.861L386.615+208.882L386.615+208.882L389.355+214.417L389.355+214.417L377.279+220.395L377.279+220.395L374.539+214.861L374.539+214.861Z" opacity="1" fill="#cccccc"/>
<path d="M449.987+32.6457L503.543+32.6457L503.543+32.6457L503.543+86.2016L503.543+86.2016L449.987+86.2016L449.987+86.2016L449.987+32.6457L449.987+32.6457Z" opacity="1" fill="#e6e6e6"/>
<path d="M460.699+43.3569L492.832+43.3569L492.832+43.3569L492.832+75.4904L492.832+75.4904L460.699+75.4904L460.699+75.4904L460.699+43.3569L460.699+43.3569Z" opacity="1" fill="#cccccc"/>
<path d="M470+54.143L476.814+65.944L483.627+77.745L470+77.745L456.373+77.745L463.187+65.944L470+54.143Z" opacity="1" fill="#e6e6e6"/>
<path d="M481.839+56.398L488.653+68.199L495.466+80L481.839+80L468.212+80L475.026+68.199L481.839+56.398Z" opacity="1" fill="#e6e6e6"/>
<path d="M482.685+48.9943C482.685+46.8149+484.451+45.0481+486.631+45.0481C488.81+45.0481+490.577+46.8149+490.577+48.9943C490.577+51.1738+488.81+52.9406+486.631+52.9406C484.451+52.9406+482.685+51.1738+482.685+48.9943Z" opacity="1" fill="#e6e6e6"/>
<path d="M179.123+32.6457L232.679+32.6457L232.679+32.6457L232.679+86.2016L232.679+86.2016L179.123+86.2016L179.123+86.2016L179.123+32.6457L179.123+32.6457Z" opacity="1" fill="#e6e6e6"/>
<path d="M189.834+43.3569L221.968+43.3569L221.968+43.3569L221.968+75.4904L221.968+75.4904L189.834+75.4904L189.834+75.4904L189.834+43.3569L189.834+43.3569Z" opacity="1" fill="#cccccc"/>
<path d="M199.136+54.143L205.949+65.944L212.763+77.745L199.136+77.745L185.509+77.745L192.322+65.944L199.136+54.143Z" opacity="1" fill="#e6e6e6"/>
<path d="M210.975+56.398L217.788+68.199L224.601+80L210.975+80L197.348+80L204.161+68.199L210.975+56.398Z" opacity="1" fill="#e6e6e6"/>
<path d="M211.82+48.9943C211.82+46.8149+213.587+45.0481+215.766+45.0481C217.946+45.0481+219.713+46.8149+219.713+48.9943C219.713+51.1738+217.946+52.9406+215.766+52.9406C213.587+52.9406+211.82+51.1738+211.82+48.9943Z" opacity="1" fill="#e6e6e6"/>
<path d="M71.4974+397.845L74.9669+392.483C73.938+389.64+72.7496+386.859+71.4074+384.15L69.1639+385.962L70.9403+383.217C69.2474+379.884+67.9153+377.785+67.9153+377.785C67.9153+377.785+60.957+388.75+58.6323+400.359L63.0845+407.24L58.1557+403.259C57.9801+404.611+57.8898+405.974+57.8853+407.337C57.8853+421.087+62.3758+432.233+67.9153+432.233C73.4547+432.233+77.9453+421.087+77.9453+407.337C77.8414+402.963+77.0675+398.63+75.6507+394.49L71.4974+397.845Z" opacity="1" fill="#489dcb"/>
<path d="M96.0553+409.765L102.3+408.427C103.582+405.689+104.709+402.882+105.675+400.018L102.807+399.713L106.005+399.028C107.164+395.474+107.707+393.047+107.707+393.047C107.707+393.047+95.0331+395.881+85.1801+402.446L83.4629+410.46L82.7927+404.159C81.7123+404.992+80.6853+405.891+79.7177+406.852C69.9953+416.574+65.289+427.631+69.206+431.548C73.1229+435.465+84.1798+430.759+93.9023+421.036C96.922+417.87+99.4386+414.259+101.364+410.33L96.0553+409.765Z" opacity="1" fill="#60bef5"/>
<path d="M98.3363+462.969C83.8551+463.895+68.0763+462.915+51.2904+462.969L51.2904+424.537C66.0816+426.84+81.8551+426.603+98.3363+424.537L98.3363+462.969Z" opacity="1" fill="#3f3d56"/>
<path d="M500.998+475.031L696.509+475.031L696.509+475.031L696.509+728.585L696.509+728.585L500.998+728.585L500.998+728.585L500.998+475.031L500.998+475.031Z" opacity="1" fill="#e6e6e6"/>
<path d="M92.6642+488.269L102.847+488.269L102.847+488.269L102.847+728.585L102.847+728.585L92.6642+728.585L92.6642+728.585L92.6642+488.269L92.6642+488.269Z" opacity="1" fill="#e6e6e6"/>
<path d="M0+457.72L696.509+457.72L696.509+457.72L696.509+478.086L696.509+478.086L0+478.086L0+478.086L0+457.72L0+457.72Z" opacity="1" fill="#e6e6e6"/>
<path d="M87.5727+478.086L107.939+478.086L107.939+478.086L107.939+498.452L107.939+498.452L87.5727+498.452L87.5727+498.452L87.5727+478.086L87.5727+478.086Z" opacity="1" fill="#e6e6e6"/>
<path d="M614.155+489.796L613.009+494.379L584.497+494.379L582.779+489.796L510.162+489.796L510.162+536.638L687.344+536.638L687.344+489.796L614.155+489.796Z" opacity="1" fill="#3f3d56"/>
<path d="M614.155+548.857L613.009+553.439L584.497+553.439L582.779+548.857L510.162+548.857L510.162+595.698L687.344+595.698L687.344+548.857L614.155+548.857Z" opacity="1" fill="#3f3d56"/>
<path d="M614.155+607.918L613.009+612.5L584.497+612.5L582.779+607.918L510.162+607.918L510.162+654.759L687.344+654.759L687.344+607.918L614.155+607.918Z" opacity="1" fill="#3f3d56"/>
<path d="M614.155+666.979L613.009+671.561L584.497+671.561L582.779+666.979L510.162+666.979L510.162+713.82L687.344+713.82L687.344+666.979L614.155+666.979Z" opacity="1" fill="#3f3d56"/>
<path d="M377.785+454.665L317.706+454.665L319.742+428.19L375.748+428.19L377.785+454.665Z" opacity="1" fill="#e6e6e6"/>
<path d="M314.651+451.611L381.858+451.611L381.858+451.611L381.858+457.72L381.858+457.72L314.651+457.72L314.651+457.72L314.651+451.611L314.651+451.611Z" opacity="1" fill="#e6e6e6"/>
<path d="M462.812+257.627L233.188+257.627C229.814+257.627+227.078+260.362+227.078+263.737L227.078+403.751L468.922+403.751L468.922+263.737C468.922+260.362+466.186+257.627+462.812+257.627Z" opacity="1" fill="#3f3d56"/>
<path d="M227.078+403.751L227.078+426.663C227.078+430.037+229.814+432.772+233.188+432.772L462.812+432.772C466.186+432.772+468.922+430.037+468.922+426.663L468.922+403.751L227.078+403.751Z" opacity="1" fill="#e6e6e6"/>
<path d="M239.298+270.355L457.211+270.355L457.211+270.355L457.211+392.55L457.211+392.55L239.298+392.55L239.298+392.55L239.298+270.355L239.298+270.355Z" opacity="1" fill="#ffffff"/>
<path d="M342.145+418.007C342.145+414.633+344.88+411.897+348.254+411.897C351.629+411.897+354.364+414.633+354.364+418.007C354.364+421.381+351.629+424.117+348.254+424.117C344.88+424.117+342.145+421.381+342.145+418.007Z" opacity="1" fill="#3f3d56"/>
<path d="M865.035+727.058C842.781+728.481+818.533+726.975+792.737+727.058L792.737+667.997C815.468+671.535+839.708+671.172+865.035+667.997L865.035+727.058Z" opacity="1" fill="#3f3d56"/>
<path d="M831.432+673.3L825.322+673.3L827.359+553.949L829.395+553.949L831.432+673.3Z" opacity="1" fill="#3f3d56"/>
<path d="M858.926+674.107L852.816+674.107L854.853+554.755L856.889+554.755L858.926+674.107Z" opacity="1" fill="#3f3d56"/>
<path d="M806.993+674.107L800.883+674.107L802.92+554.755L804.956+554.755L806.993+674.107Z" opacity="1" fill="#3f3d56"/>
<path d="M836.523+477.577L846.386+462.334C843.461+454.255+840.083+446.347+836.268+438.648L829.89+443.799L834.94+435.995C830.127+426.521+826.341+420.553+826.341+420.553C826.341+420.553+806.56+451.723+799.952+484.725L812.608+504.285L798.597+492.969C798.098+496.813+797.841+500.685+797.828+504.562C797.828+543.647+810.594+575.333+826.341+575.333C842.087+575.333+854.853+543.647+854.853+504.562C854.853+492.445+852.111+479.768+848.33+468.041L836.523+477.577Z" opacity="1" fill="#e6e6e6"/>
<path d="M864.017+479.614L873.88+464.371C870.955+456.292+867.577+448.383+863.761+440.684L857.384+445.835L862.434+438.031C857.621+428.558+853.834+422.589+853.834+422.589C853.834+422.589+834.054+453.76+827.446+486.762L840.102+506.322L826.091+495.005C825.592+498.85+825.335+502.722+825.322+506.598C825.322+545.684+838.088+577.369+853.834+577.369C869.581+577.369+882.346+545.684+882.346+506.598C882.346+494.481+879.605+481.804+875.824+470.077L864.017+479.614Z" opacity="1" fill="#489dcb"/>
<path d="M812.085+479.614L821.947+464.371C819.022+456.292+815.644+448.383+811.829+440.684L805.451+445.835L810.501+438.031C805.688+428.558+801.902+422.589+801.902+422.589C801.902+422.589+782.121+453.76+775.513+486.762L788.169+506.322L774.158+495.005C773.659+498.85+773.403+502.722+773.39+506.598C773.39+545.684+786.155+577.369+801.902+577.369C817.648+577.369+830.414+545.684+830.414+506.598C830.414+494.481+827.672+481.804+823.891+470.078L812.085+479.614Z" opacity="1" fill="#489dcb"/>
<path d="M309.964+304.848L368.72+304.848L368.72+304.848L368.72+308.221L368.72+308.221L309.964+308.221L309.964+308.221L309.964+304.848L309.964+304.848Z" opacity="1" fill="#3f3d56"/>
<path d="M309.964+317.151L400.696+317.151L400.696+317.151L400.696+320.524L400.696+320.524L309.964+320.524L309.964+320.524L309.964+317.151L309.964+317.151Z" opacity="1" fill="#489dcb"/>
<path d="M309.964+328.742L383.909+328.742L383.909+328.742L383.909+332.115L383.909+332.115L309.964+332.115L309.964+332.115L309.964+328.742L309.964+328.742Z" opacity="1" fill="#60bef5"/>
<path d="M309.964+340.29L353.132+340.29L353.132+340.29L353.132+343.663L353.132+343.663L309.964+343.663L309.964+343.663L309.964+340.29L309.964+340.29Z" opacity="1" fill="#3f3d56"/>
<path d="M309.964+351.837L375.115+351.837L375.115+351.837L375.115+355.21L375.115+355.21L309.964+355.21L309.964+355.21L309.964+351.837L309.964+351.837Z" opacity="1" fill="#3f3d56"/>
<path d="M283.184+303.649L290.379+303.649L290.379+303.649L290.379+310.843L290.379+310.843L283.184+310.843L283.184+310.843L283.184+303.649L283.184+303.649Z" opacity="1" fill="#3f3d56"/>
<path d="M283.184+315.24L290.379+315.24L290.379+315.24L290.379+322.435L290.379+322.435L283.184+322.435L283.184+322.435L283.184+315.24L283.184+315.24Z" opacity="1" fill="#489dcb"/>
<path d="M283.184+326.831L290.379+326.831L290.379+326.831L290.379+334.026L290.379+334.026L283.184+334.026L283.184+334.026L283.184+326.831L283.184+326.831Z" opacity="1" fill="#60bef5"/>
<path d="M283.184+338.423L290.379+338.423L290.379+338.423L290.379+345.617L290.379+345.617L283.184+345.617L283.184+345.617L283.184+338.423L283.184+338.423Z" opacity="1" fill="#3f3d56"/>
<path d="M283.184+350.014L290.379+350.014L290.379+350.014L290.379+357.209L290.379+357.209L283.184+357.209L283.184+357.209L283.184+350.014L283.184+350.014Z" opacity="1" fill="#3f3d56"/>
<path d="M447.115+298.463L416.282+298.463C414.178+286.299+414.178+273.864+416.282+261.7L447.115+261.7C443.642+273.708+443.642+286.455+447.115+298.463Z" opacity="1" fill="#60bef5"/>
<path d="M222.764+372.144L210.079+369.052C200.277+369.065+190.988+364.673+184.776+357.091C178.564+349.508+176.087+339.536+178.028+329.928L178.028+329.928C177.999+306.354+197.085+287.22+220.659+287.19L220.659+287.19C244.234+287.161+263.368+306.247+263.398+329.821L263.398+329.821C270.59+354.849+248.064+378.312+222.764+372.144Z" opacity="1" fill="#2f2e41"/>
<path d="M205.256+345.243C205.256+327.922+219.298+313.88+236.62+313.88C253.941+313.88+267.983+327.922+267.983+345.243C267.983+362.565+253.941+376.607+236.62+376.607C219.298+376.607+205.256+362.565+205.256+345.243Z" opacity="1" fill="#997238"/>
<path d="M216.165+361.607C216.165+361.607+206.62+394.334+201.165+397.062C195.711+399.789+244.802+403.88+244.802+403.88C244.802+403.88+243.438+372.516+246.165+369.789C248.893+367.061+216.165+361.607+216.165+361.607Z" opacity="1" fill="#997238"/>
<path d="M265.256+563.426C265.256+563.426+326.62+557.971+334.802+578.426C342.984+598.88+329.347+720.244+329.347+720.244L303.438+720.244L303.438+620.698C303.438+620.698+192.966+589.297+192.966+578.387C192.966+567.478+265.256+563.426+265.256+563.426Z" opacity="1" fill="#2f2e41"/>
<path d="M325.256+714.789L338.893+720.244C338.893+720.244+355.256+718.88+348.438+731.153C344.485+738.37+337.456+743.39+329.347+744.79C329.347+744.79+303.438+754.335+302.074+744.79C300.711+735.244+308.893+716.153+308.893+716.153L325.256+714.789Z" opacity="1" fill="#2f2e41"/>
<path d="M231.165+563.426C231.165+563.426+292.529+557.971+300.711+578.426C308.893+598.88+295.256+720.244+295.256+720.244L269.347+720.244L269.347+620.698C269.347+620.698+190.929+602.534+190.929+591.625C190.929+586.5+185.585+560.454+195.002+554.967C205.63+548.774+231.165+563.426+231.165+563.426Z" opacity="1" fill="#2f2e41"/>
<path d="M291.165+714.789L304.802+720.244C304.802+720.244+321.165+718.88+314.347+731.153C310.394+738.37+303.365+743.39+295.256+744.79C295.256+744.789+269.347+754.335+267.983+744.79C266.62+735.244+274.802+716.153+274.802+716.153L291.165+714.789Z" opacity="1" fill="#2f2e41"/>
<path d="M202.529+392.971L243.509+397.425C256.483+398.835+267.08+408.424+269.778+421.192L285.711+496.607C285.711+496.607+291.165+571.607+280.256+575.698C269.347+579.789+254.347+559.335+233.892+562.062C213.438+564.789+186.847+570.926+186.847+570.926C186.847+570.926+182.624+436.678+182.074+425.698C180.975+403.747+202.529+392.971+202.529+392.971Z" opacity="1" fill="#446284"/>
<path d="M299.601+567.322L316.424+577.23C316.424+577.23+346.607+572.899+345.665+583.508C344.723+594.116+311.776+592.067+311.776+592.067L291.501+579.574L299.601+567.322Z" opacity="1" fill="#ffb8b8"/>
<path d="M155.483+299.475C155.483+288.286+164.554+279.215+175.743+279.215C186.932+279.215+196.003+288.286+196.003+299.475C196.003+310.664+186.932+319.735+175.743+319.735C164.554+319.735+155.483+310.664+155.483+299.475Z" opacity="1" fill="#2f2e41"/>
<path d="M194.436+288.584C194.431+282.516+191.705+276.769+187.008+272.927C182.311+269.084+176.139+267.55+170.19+268.748C177.265+265.404+185.634+266.437+191.684+271.4C197.735+276.363+200.384+284.369+198.489+291.961C196.594+299.554+190.493+305.375+182.82+306.913C189.916+303.57+194.442+296.428+194.436+288.584Z" opacity="1" fill="#2f2e41"/>
<path d="M211.817+300.074L239.13+295.045L260.135+308.21C270.68+314.819+276.412+326.963+274.812+339.305L253.775+333.973L249.064+322.161L243.454+331.357L214.12+369.107L197.65+358.619L182.967+335.61L211.817+300.074Z" opacity="1" fill="#2f2e41"/>
<path d="M234.309+404.571L247.945+397.752C247.945+397.752+276.582+401.843+282.036+420.934C287.491+440.025+312.036+572.298+312.036+572.298L288.854+583.207L256.127+502.752L234.309+404.571Z" opacity="1" fill="#446284"/>
<path d="M245.917+458.23L259.565+511.205L283.767+570.701L282.928+572.761L254.063+512.199L245.917+458.23Z" opacity="0.2" fill="#000000"/>
<path d="M144.084+750.379L139.271+748.721L185.896+610.231L192.636+612.553L144.084+750.379Z" opacity="1" fill="#3f3d56"/>
<path d="M322.291+750.379L327.105+748.721L280.479+610.231L273.74+612.553L322.291+750.379Z" opacity="1" fill="#3f3d56"/>
<path d="M223.77+778.981L228.861+778.999L230.443+617.107L223.315+617.082L223.77+778.981Z" opacity="1" fill="#3f3d56"/>
<path d="M132.3+528.856L146.266+585.302C150.251+601.41+162.809+613.998+178.908+618.023L178.908+618.023C217.857+627.76+258.635+627.497+297.455+617.259L318.306+611.76C330.422+608.565+339.532+598.159+340.395+585.659C340.744+581.24+339.944+576.805+338.072+572.787C337.99+572.614+337.908+572.442+337.826+572.272C332.284+560.888+320.884+553.516+308.228+553.134L286.139+552.421L205.694+516.781C205.694+516.781+178.027+502.728+155.282+501.155C140.262+500.116+128.683+514.24+132.3+528.856Z" opacity="1" fill="#60bef5"/>
<path d="M543.257+351.309L622.683+351.309L622.683+351.309L622.683+459.248L622.683+459.248L543.257+459.248L543.257+459.248L543.257+351.309L543.257+351.309Z" opacity="1" fill="#e6e6e6"/>
<path d="M552.421+363.764L613.518+363.764L613.518+363.764L613.518+446.793L613.518+446.793L552.421+446.793L552.421+446.793L552.421+363.764L552.421+363.764Z" opacity="1" fill="#ffffff"/>
<path d="M576.467+385.492L606.069+385.492L606.069+385.492L606.069+388.865L606.069+388.865L576.467+388.865L576.467+388.865L576.467+385.492L576.467+385.492Z" opacity="1" fill="#3f3d56"/>
<path d="M559.87+383.625L567.065+383.625L567.065+383.625L567.065+390.819L567.065+390.819L559.87+390.819L559.87+390.819L559.87+383.625L559.87+383.625Z" opacity="1" fill="#3f3d56"/>
<path d="M576.467+399.748L606.069+399.748L606.069+399.748L606.069+403.121L606.069+403.121L576.467+403.121L576.467+403.121L576.467+399.748L576.467+399.748Z" opacity="1" fill="#3f3d56"/>
<path d="M559.87+397.881L567.065+397.881L567.065+397.881L567.065+405.075L567.065+405.075L559.87+405.075L559.87+405.075L559.87+397.881L559.87+397.881Z" opacity="1" fill="#3f3d56"/>
<path d="M576.467+414.004L606.069+414.004L606.069+414.004L606.069+417.377L606.069+417.377L576.467+417.377L576.467+417.377L576.467+414.004L576.467+414.004Z" opacity="1" fill="#3f3d56"/>
<path d="M559.87+412.137L567.065+412.137L567.065+412.137L567.065+419.331L567.065+419.331L559.87+419.331L559.87+419.331L559.87+412.137L559.87+412.137Z" opacity="1" fill="#3f3d56"/>
<path d="M582.97+354.364L582.97+354.364C584.657+354.364+586.025+355.732+586.025+357.419L586.025+357.419C586.025+359.106+584.657+360.474+582.97+360.474L582.97+360.474C581.283+360.474+579.915+359.106+579.915+357.419L579.915+357.419C579.915+355.732+581.283+354.364+582.97+354.364Z" opacity="1" fill="#3f3d56"/>
</g>
</svg>
