<?xml version="1.0" encoding="UTF-8" standalone="no"?> <!-- Created with Vectornator for iOS (http://vectornator.io/) --><!DOCTYPE svg PUBLIC "-//W3C//DTD SVG 1.1//EN" "http://www.w3.org/Graphics/SVG/1.1/DTD/svg11.dtd">
<svg style="fill-rule:evenodd;clip-rule:evenodd;stroke-linecap:round;stroke-linejoin:round;" xmlns:vectornator="http://vectornator.io" xmlns:xlink="http://www.w3.org/1999/xlink" xmlns="http://www.w3.org/2000/svg" xml:space="preserve" version="1.1" viewBox="0 0 915.112 600.53">
<metadata>
<vectornator:setting key="DynamicGuides" value="1"/>
<vectornator:setting key="Units" value="Points"/>
<vectornator:setting key="GuidesVisible" value="1"/>
<vectornator:setting key="RulersVisible" value="1"/>
<vectornator:setting key="SnapToGuides" value="1"/>
<vectornator:setting key="GridSpacing" value="36"/>
</metadata>
<defs/>
<g id="Untitled" vectornator:layerName="Untitled">
<path d="M189.473+260.295C143.196+260.508+105.529+261.192+105.529+261.192C105.529+261.192+150.302+201.884+189.305+223.857C228.308+245.83+273.112+260.419+273.112+260.419C273.112+260.419+235.75+260.081+189.473+260.295Z" opacity="1" fill="#f2f2f2"/>
<path d="M698.669+268.224C698.669+262.87+703.008+258.53+708.362+258.53C713.716+258.53+718.056+262.87+718.056+268.224C718.056+273.578+713.716+277.918+708.362+277.918C703.008+277.918+698.669+273.578+698.669+268.224Z" opacity="1" fill="#ff6584"/>
<path d="M637.396+419.773L709.88+336.539L709.88+336.539L712.117+338.487L712.117+338.487L639.634+421.721L639.634+421.721L637.396+419.773L637.396+419.773Z" opacity="1" fill="#3f3d56"/>
<path d="M695.391+337.513C695.391+328.893+702.379+321.905+710.999+321.905C719.619+321.905+726.607+328.893+726.607+337.513C726.607+346.133+719.619+353.121+710.999+353.121C702.379+353.121+695.391+346.133+695.391+337.513Z" opacity="1" fill="#3f3d56"/>
<path d="M666.326+388.812C666.326+388.812+696.138+351.182+658.007+325.367" opacity="1" fill="#3f3d56"/>
<path d="M179.855+454.887C233.545+554.457+347.493+597.2+347.493+597.2C347.493+597.2+374.394+478.509+320.704+378.939C267.015+279.37+153.066+236.626+153.066+236.626C153.066+236.626+126.165+355.318+179.855+454.887Z" opacity="1" fill="#3f3d56"/>
<path d="M216.758+422.13C313.69+480.447+351.021+596.282+351.021+596.282C351.021+596.282+231.195+617.565+134.263+559.247C37.3315+500.93+0+385.096+0+385.096C0+385.096+119.826+363.812+216.758+422.13Z" opacity="1" fill="#60bef5"/>
<path d="M602.431+422.954C504.987+480.412+466.633+595.911+466.633+595.911C466.633+595.911+586.266+618.254+683.71+560.796C781.154+503.338+819.508+387.838+819.508+387.838C819.508+387.838+699.875+365.496+602.431+422.954Z" opacity="1" fill="#3f3d56"/>
<path d="M636.576+458.577C582.008+557.668+467.686+599.402+467.686+599.402C467.686+599.402+441.836+480.477+496.404+381.386C550.973+282.295+665.295+240.562+665.295+240.562C665.295+240.562+691.144+359.486+636.576+458.577Z" opacity="1" fill="#60bef5"/>
<path d="M438.547+185.845C426.868+175.283+425.233+157.533+434.785+145.015C434.175+145.587+433.579+146.181+433.008+146.812C421.79+159.219+422.754+178.371+435.161+189.589C447.569+200.808+466.721+199.844+477.939+187.436C478.51+186.805+479.041+186.153+479.548+185.488C468.052+196.249+450.228+196.404+438.547+185.845Z" opacity="1" fill="#2f2e41"/>
<path d="M348.737+144.965C348.737+110.515+376.664+82.5885+411.114+82.5885C445.563+82.5885+473.49+110.515+473.49+144.965C473.49+179.414+445.563+207.341+411.114+207.341C376.664+207.341+348.737+179.414+348.737+144.965Z" opacity="1" fill="#2f2e41"/>
<path d="M393.979+225.111L395.827+220.305L362.186+248.771L321.52+271.692C321.52+271.692+300.818+191.839+299.339+190.361C297.86+188.882+271.243+132.689+259.413+159.307C247.582+185.924+282.333+201.451+282.333+201.451C282.333+201.451+283.442+298.679+318.932+297.94C354.422+297.201+398.415+265.038+399.155+262.08C399.894+259.123+393.979+225.111+393.979+225.111Z" opacity="1" fill="#997238"/>
<path d="M366.622+171.876C366.622+151.459+383.174+134.907+403.591+134.907C424.008+134.907+440.56+151.459+440.56+171.876C440.56+192.294+424.008+208.845+403.591+208.845C383.174+208.845+366.622+192.294+366.622+171.876Z" opacity="1" fill="#997238"/>
<path d="M410.985+198.494C410.985+198.494+420.597+211.063+417.639+212.542C414.682+214.021+397.676+214.76+387.325+227.329C376.973+239.899+399.894+271.692+399.894+271.692L487.14+213.281L451.65+201.451C451.65+201.451+427.251+188.143+427.99+174.094L410.985+198.494Z" opacity="1" fill="#997238"/>
<path d="M528.748+600.53L430.238+600.53C424.658+559.73+422.078+522.34+422.078+522.34C422.078+522.34+420.638+559.95+416.808+600.53L290.248+600.53C308.188+480.37+393.238+350.07+393.238+350.07C393.238+350.07+393.978+332.32+396.198+329.36C398.418+326.41+383.628+325.67+376.968+303.49C372.908+289.95+376.558+281.09+380.028+276.25C381.22+274.506+382.685+272.966+384.368+271.69C384.368+271.69+385.848+256.17+384.368+253.95C384.178+253.66+385.638+252.64+388.338+251.09C390.588+249.79+393.698+248.12+397.418+246.2C418.728+235.15+459.978+215.6+474.108+208.94C477.208+207.47+479.008+206.63+479.008+206.63L504.148+215.5C524.108+222.15+524.108+264.3+524.108+264.3L522.978+266.02L492.808+311.72L475.308+338.24C479.748+341.19+470.878+359.68+470.878+359.68C470.878+359.68+483.518+377.84+493.798+405.56C499.612+420.988+503.576+437.05+505.608+453.41C506.904+464.013+507.159+474.717+506.368+485.37C503.628+520.99+515.808+564.28+528.748+600.53Z" opacity="1" fill="#2f2e41"/>
<path d="M504.503+219.858C502.844+218.926+500.858+218.772+499.076+219.439C497.293+220.105+495.896+221.524+495.256+223.316C493.029+229.438+490.773+242.2+491.577+268.735C493.056+317.533+493.795+350.805+493.795+350.805L493.795+424.743C493.795+424.743+461.262+495.723+479.007+495.723C496.752+495.723+509.322+439.531+509.322+439.531C509.322+439.531+525.588+354.502+520.412+339.715C520.412+339.715+535.006+237.558+504.503+219.858Z" opacity="1" fill="#997238"/>
<path d="M367.523+139.073C367.523+127.125+381.728+117.439+399.252+117.439C416.775+117.439+430.981+127.125+430.981+139.073C430.981+151.02+416.775+160.706+399.252+160.706C381.728+160.706+367.523+151.02+367.523+139.073Z" opacity="1" fill="#2f2e41"/>
<path d="M419.352+91.8168C419.352+75.09+432.911+61.5302+449.638+61.5302C466.365+61.5302+479.925+75.09+479.925+91.8168C479.925+108.544+466.365+122.104+449.638+122.104C432.911+122.104+419.352+108.544+419.352+91.8168Z" opacity="1" fill="#2f2e41"/>
<path d="M471.272+113.45C455.525+113.448+442.408+101.379+441.098+85.6874C441.029+86.5204+440.985+87.3605+440.985+88.2113C440.985+104.938+454.545+118.498+471.272+118.498C487.999+118.498+501.558+104.938+501.558+88.2113C501.558+87.3605+501.514+86.5204+501.446+85.6874C500.135+101.379+487.018+113.448+471.272+113.45Z" opacity="1" fill="#2f2e41"/>
<path d="M435.825+160.278C435.066+157.1+435.577+154.255+436.967+153.923C438.358+153.591+440.1+155.898+440.859+159.075C441.618+162.253+441.106+165.098+439.716+165.43C438.326+165.762+436.584+163.455+435.825+160.278Z" opacity="1" fill="#997238"/>
<path d="M437.972+163.373C437.972+162.557+438.634+161.895+439.451+161.895C440.267+161.895+440.929+162.557+440.929+163.373C440.929+164.19+440.267+164.852+439.451+164.852C438.634+164.852+437.972+164.19+437.972+163.373Z" opacity="1" fill="#f2f2f2"/>
<path d="M87.9184+290.03C81.291+290.03+75.9184+284.658+75.9184+278.03C75.9184+271.403+81.291+266.03+87.9184+266.03C94.5458+266.03+99.9184+271.403+99.9184+278.03C99.911+284.655+94.5428+290.023+87.9184+290.03ZM87.9184+268.03C82.3956+268.03+77.9184+272.507+77.9184+278.03C77.9184+283.553+82.3956+288.03+87.9184+288.03C93.4413+288.03+97.9184+283.553+97.9184+278.03C97.9121+272.51+93.4386+268.036+87.9184+268.03Z" opacity="1" fill="#3f3d56"/>
<path d="M607.418+202.53L581.418+202.53L581.418+176.53L607.418+176.53L607.418+202.53ZM583.418+200.53L605.418+200.53L605.418+178.53L583.418+178.53L583.418+200.53Z" opacity="1" fill="#3f3d56"/>
<path d="M831.473+342.295C785.196+342.508+747.529+343.192+747.529+343.192C747.529+343.192+792.302+283.884+831.305+305.857C870.308+327.83+915.112+342.419+915.112+342.419C915.112+342.419+877.75+342.081+831.473+342.295Z" opacity="1" fill="#f2f2f2"/>
<path d="M689.473+142.295C643.196+142.508+605.529+143.192+605.529+143.192C605.529+143.192+650.302+83.8842+689.305+105.857C728.308+127.83+773.112+142.419+773.112+142.419C773.112+142.419+735.75+142.081+689.473+142.295Z" opacity="1" fill="#f2f2f2"/>
<path d="M250.827+167.899L143.82+112.875C136.513+109.117+133.635+100.147+137.393+92.8402L162.602+43.8151C163.342+42.3763+164.641+41.3049+166.194+40.852L250.536+16.2597C257.538+14.218+264.914+18.0108+267.327+24.894L295.038+103.941C296.437+107.932+296.134+112.323+294.2+116.083L270.861+161.471C267.104+168.779+258.134+171.656+250.827+167.899Z" opacity="1" fill="#f2f2f2"/>
<path d="M255.078+148.469L147.033+102.342C143.552+100.552+146.816+103.304+148.606+99.8223L162.188+44.62L294.544+112.679L261.083+154.053C259.293+157.535+258.56+150.259+255.078+148.469Z" opacity="0.1" fill="#000000"/>
<path d="M154.357+102.583L197.485+18.7103C199.553+14.6898+204.488+13.1064+208.509+15.1739L292.382+58.3024C296.402+60.3699+297.986+65.3052+295.918+69.3258L252.79+153.199C250.722+157.219+245.787+158.803+241.766+156.735L157.893+113.607C153.873+111.539+152.289+106.604+154.357+102.583Z" opacity="1" fill="#60bef5"/>
<path d="M276.863+106.382L249.046+160.479L150.613+109.863L178.43+55.767L215.415+104.863L276.863+106.382Z" opacity="0.1" fill="#000000"/>
<path d="M213.842+107.921L166.453+45.014C165.857+44.223+164.896+43.794+163.91+43.8784C162.923+43.9628+162.049+44.5487+161.596+45.4294L134.63+97.8713C132.361+102.284+134.099+107.7+138.511+109.969L256.001+170.383C260.413+172.652+265.83+170.915+268.098+166.502L294.603+114.959C295.155+113.884+295.117+112.601+294.5+111.562C293.883+110.523+292.775+109.873+291.567+109.844L213.842+107.921Z" opacity="1" fill="#f2f2f2"/>
<path d="M205.063+24.8283L232.59+38.9834L232.59+38.9834L230.589+42.8763L230.589+42.8763L203.061+28.7211L203.061+28.7211L205.063+24.8283L205.063+24.8283Z" opacity="1" fill="#f2f2f2"/>
<path d="M195.546+37.8654L277.295+79.902L277.295+79.902L276.152+82.1265L276.152+82.1265L194.402+40.0899L194.402+40.0899L195.546+37.8654L195.546+37.8654Z" opacity="1" fill="#f2f2f2"/>
<path d="M191.686+45.373L273.435+87.4096L273.435+87.4096L272.291+89.634L272.291+89.634L190.542+47.5975L190.542+47.5975L191.686+45.373L191.686+45.373Z" opacity="1" fill="#f2f2f2"/>
<path d="M187.825+52.8806L269.574+94.9172L269.574+94.9172L268.431+97.1416L268.431+97.1416L186.681+55.1051L186.681+55.1051L187.825+52.8806L187.825+52.8806Z" opacity="1" fill="#f2f2f2"/>
<path d="M198.591+26.4749C192.294+23.2372+189.82+15.4992+193.063+9.19147C196.307+2.88374+204.04+0.394929+210.336+3.63255C216.633+6.87018+219.107+14.6082+215.864+20.9159C212.62+27.2237+204.887+29.7125+198.591+26.4749Z" opacity="1" fill="#ffffff"/>
<path d="M211.337+1.68614C203.812-2.1832+194.576+0.780139+190.706+8.30496C186.837+15.8298+189.8+25.0666+197.325+28.9359C204.85+32.8053+214.087+29.842+217.956+22.3171C221.799+14.7901+218.842+5.5728+211.337+1.68614ZM197.799+21.1372L194.407+10.5638L197.372+9.61236L199.816+17.23L215.894+12.0717L216.846+15.0375C216.846+15.0375+197.799+21.1372+197.799+21.1372Z" opacity="1" fill="#57b894"/>
</g>
</svg>
