<?xml version="1.0" encoding="UTF-8" standalone="no"?> <!-- Created with Vectornator for iOS (http://vectornator.io/) --><!DOCTYPE svg PUBLIC "-//W3C//DTD SVG 1.1//EN" "http://www.w3.org/Graphics/SVG/1.1/DTD/svg11.dtd">
<svg style="fill-rule:evenodd;clip-rule:evenodd;stroke-linecap:round;stroke-linejoin:round;" xmlns:vectornator="http://vectornator.io" xmlns:xlink="http://www.w3.org/1999/xlink" xmlns="http://www.w3.org/2000/svg" xml:space="preserve" version="1.1" viewBox="0 0 600 682.624">
<metadata>
<vectornator:setting key="DynamicGuides" value="1"/>
<vectornator:setting key="Units" value="Points"/>
<vectornator:setting key="GuidesVisible" value="1"/>
<vectornator:setting key="RulersVisible" value="1"/>
<vectornator:setting key="SnapToGuides" value="1"/>
<vectornator:setting key="GridSpacing" value="36"/>
</metadata>
<defs/>
<g id="Untitled" vectornator:layerName="Untitled">
<path d="M438.085+107.556C409.786+106.187+380.999+106.416+353.671+113.167C326.343+119.917+300.355+133.81+284.803+155.117C275.899+167.315+270.584+181.6+260.214+192.821C242.225+212.276+212.823+218.96+185.688+225.668C121.966+241.353+57.8879+264.017+11.6663+306.474C5.0305+312.561-1.43642+319.505-2.93853+327.92C-5.24298+340.86+4.90381+352.967+16.1606+361.25C27.4174+369.533+40.7373+376.102+49.0683+386.846C59.6917+400.546+60.2889+418.65+57.2726+435.107C54.2563+451.564+48.0488+467.574+46.414+484.212C46.0098+488.314+45.9133+492.591+47.6929+496.386C50.0516+501.417+55.2939+504.831+60.4337+507.703C78.656+517.931+98.3188+525.348+118.757+529.704C153.969+537.25+190.689+535.833+226.74+538.934C262.79+542.034+300.337+550.709+325.674+573.959C341.214+588.214+355.233+609.008+377.391+608.302C389.806+607.91+400.773+600.321+413.158+599.476C427.1+598.523+439.702+606.112+452.847+610.438C471.517+616.591+493.138+615.994+510.645+607.512C528.151+599.03+540.862+582.416+541.887+564.56C542.889+547.065+533.406+530.699+527.928+513.886C509.963+458.803+535.233+400.595+560.359+347.822C585.485+295.049+611.413+237.275+594.697+181.872C575.29+117.613+500.118+110.56+438.085+107.556Z" opacity="0.1" fill="#60bef5"/>
<path d="M435.873+405.596C436.767+407.679+437.713+409.785+438.684+411.854L436.603+412.831C435.621+410.738+434.665+408.61+433.76+406.503L435.873+405.596Z" opacity="1" fill="#e6e6e6"/>
<path d="M303.299+109.481C291.692+89.8693+268.729+88.9553+268.729+88.9553C268.729+88.9553+246.352+86.0938+231.998+115.963C218.619+143.804+200.153+170.685+229.025+177.202L234.24+160.97L237.47+178.411C241.581+178.706+245.705+178.777+249.823+178.622C280.743+177.624+310.189+178.914+309.241+167.819C307.981+153.069+314.467+128.352+303.299+109.481Z" opacity="1" fill="#2f2e41"/>
<path d="M210.489+539.268L210.489+570.268L194.489+568.268L194.489+542.268L210.489+539.268Z" opacity="1" fill="#997238"/>
<path d="M321.489+559.268L327.488+583.268L341.488+578.268L331.488+555.268L321.489+559.268Z" opacity="1" fill="#997238"/>
<path d="M213.489+207.268L215.489+262.268L228.489+266.268L232.489+213.268L213.489+207.268Z" opacity="1" fill="#997238"/>
<path d="M217.488+258.269L215.488+262.269L197.488+279.269C197.488+279.269+184.488+290.269+189.488+297.269L202.488+291.269L202.488+287.269L232.488+266.269L217.488+258.269Z" opacity="1" fill="#997238"/>
<path d="M290.489+274.268L290.489+297.268L213.489+285.268L222.489+268.268L290.489+274.268Z" opacity="1" fill="#ffb8b8"/>
<path d="M325.488+202.269C325.488+202.269+332.488+221.269+333.488+223.269C334.488+225.269+346.488+271.269+346.488+271.269L376.488+319.269C376.488+319.269+398.488+345.269+384.488+346.269C370.488+347.269+360.488+324.269+360.488+324.269L330.488+285.269L302.488+211.269L325.488+202.269Z" opacity="1" fill="#997238"/>
<path d="M238.988+130.769C238.988+114.752+251.972+101.769+267.988+101.769C284.004+101.769+296.988+114.752+296.988+130.769C296.988+146.785+284.004+159.769+267.988+159.769C251.972+159.769+238.988+146.785+238.988+130.769Z" opacity="1" fill="#997238"/>
<path d="M259.488+150.269C259.488+150.269+259.488+171.269+248.488+174.269C237.488+177.269+257.488+199.269+257.488+199.269L297.488+179.269C297.488+179.269+280.488+173.269+285.488+150.269L259.488+150.269Z" opacity="1" fill="#997238"/>
<path d="M252.988+171.769L252.988+171.769L231.78+178.768C220.044+183.504+211.968+194.439+210.894+207.05C210.521+210.863+211.068+214.71+212.488+218.269C218.488+232.269+225.488+235.269+225.488+235.269C225.488+235.269+226.488+241.269+225.488+242.269C224.488+243.269+222.488+244.269+223.488+247.269C224.488+250.269+225.488+249.269+224.488+252.269C223.488+255.269+219.488+262.269+219.488+262.269C219.488+262.269+223.488+264.269+220.488+266.269C217.488+268.269+213.735+274.284+213.735+274.284C213.735+274.284+232.489+291.213+290.489+291.213L303.488+233.269C303.488+233.269+331.488+222.269+330.488+211.269C329.488+200.269+323.488+190.269+316.488+187.269C309.488+184.269+292.501+176.26+292.501+176.26C292.501+176.26+290.262+183.697+269.788+181.906C262.925+181.296+256.727+177.556+252.988+171.769Z" opacity="1" fill="#3f3d56"/>
<path d="M292.488+290.269C292.488+290.269+226.488+286.269+216.488+272.269L188.488+299.269L191.488+316.269L190.488+538.269C190.488+538.269+189.488+549.269+192.488+549.269C195.488+549.269+211.488+551.269+212.488+549.269C213.488+547.269+209.488+543.269+216.488+541.269C223.488+539.269+223.488+546.269+223.488+539.269C223.488+532.269+222.488+502.269+220.488+497.269C218.488+492.269+243.488+377.269+243.488+377.269C243.488+377.269+309.488+555.269+314.488+559.269C319.488+563.269+320.488+569.269+323.488+568.269C326.488+567.269+340.488+563.269+341.488+562.269C342.488+561.269+340.488+553.269+341.488+550.269C342.488+547.269+345.488+551.269+341.488+545.269C337.488+539.269+336.488+535.269+336.488+532.269C336.488+529.269+299.488+336.269+299.488+336.269C299.488+336.269+307.488+318.269+295.488+308.269L292.488+290.269Z" opacity="1" fill="#2f2e41"/>
<path d="M212.488+562.269C212.488+562.269+202.488+552.269+198.488+552.269L188.488+552.269C188.488+552.269+179.488+571.269+176.488+572.269C173.488+573.269+153.488+597.269+171.488+597.269C189.488+597.269+196.488+591.269+196.488+591.269L212.488+583.269L212.488+562.269Z" opacity="1" fill="#2f2e41"/>
<path d="M325.83+576.637L323.488+597.269C323.488+597.269+343.488+605.269+343.488+606.269C343.488+607.269+375.488+622.269+377.488+609.269C379.488+596.269+361.488+585.269+361.488+585.269C361.488+585.269+342.299+562.55+338.893+563.409C335.488+564.269+335.488+570.269+335.488+570.269L325.83+576.637Z" opacity="1" fill="#2f2e41"/>
<path d="M531.988+466.439L251.989+466.439L251.989+341.687L391.988+404.617L531.988+341.687L531.988+466.439Z" opacity="1" fill="#3f3d56"/>
<path d="M251.989+341.687L531.988+341.687L392.266+413.766L251.989+341.687Z" opacity="1" fill="#60bef5"/>
<path d="M380.622+413.766C380.622+407.335+385.835+402.122+392.265+402.122C398.696+402.122+403.909+407.335+403.909+413.766C403.909+420.197+398.696+425.41+392.265+425.41C385.835+425.41+380.622+420.197+380.622+413.766Z" opacity="1" fill="#e6e6e6"/>
<path d="M254.936+89.0546C254.936+79.8846+262.369+72.4508+271.539+72.4508C280.709+72.4508+288.143+79.8846+288.143+89.0546C288.143+98.2246+280.709+105.658+271.539+105.658C262.369+105.658+254.936+98.2246+254.936+89.0546Z" opacity="1" fill="#2f2e41"/>
<path d="M253.188+84.6852C253.189+76.1923+259.598+69.069+268.044+68.1748C261.726+67.502+255.578+70.4936+252.209+75.8801C248.84+81.2667+248.84+88.1037+252.209+93.4902C255.578+98.8768+261.726+101.868+268.044+101.196C259.598+100.301+253.189+93.1781+253.188+84.6852Z" opacity="1" fill="#2f2e41"/>
<path d="M298.168+107.591L275.48+95.7073L244.152+100.568L237.67+129.197L253.806+128.576L258.312+118.059L258.312+128.403L265.758+128.117L270.079+111.372L272.781+129.197L299.247+128.657L298.168+107.591Z" opacity="1" fill="#2f2e41"/>
<path d="M116.074+524.384C115.89+524.083+111.544+516.827+110.037+501.758C108.655+487.934+109.544+464.631+121.629+432.126C144.523+370.548+116.353+320.864+116.065+320.369L117.455+319.562C117.528+319.688+124.797+332.355+129.091+352.527C134.765+379.27+132.699+407.076+123.135+432.686C100.28+494.16+117.271+523.26+117.445+523.547L116.074+524.384Z" opacity="1" fill="#3f3d56"/>
<path d="M96.6811+306.312C96.6811+300.546+101.356+295.871+107.122+295.871C112.888+295.871+117.563+300.546+117.563+306.312C117.563+312.078+112.888+316.753+107.122+316.753C101.356+316.753+96.6811+312.078+96.6811+306.312Z" opacity="1" fill="#60bef5"/>
<path d="M129.61+344.863C129.61+339.097+134.285+334.422+140.051+334.422C145.818+334.422+150.492+339.097+150.492+344.863C150.492+350.629+145.818+355.304+140.051+355.304C134.285+355.304+129.61+350.629+129.61+344.863Z" opacity="1" fill="#3f3d56"/>
<path d="M107.122+370.564C107.122+364.798+111.797+360.123+117.563+360.123C123.329+360.123+128.004+364.798+128.004+370.564C128.004+376.33+123.329+381.005+117.563+381.005C111.797+381.005+107.122+376.33+107.122+370.564Z" opacity="1" fill="#60bef5"/>
<path d="M134.429+392.249C134.429+386.483+139.104+381.808+144.87+381.808C150.636+381.808+155.311+386.483+155.311+392.249C155.311+398.015+150.636+402.69+144.87+402.69C139.104+402.69+134.429+398.015+134.429+392.249Z" opacity="1" fill="#60bef5"/>
<path d="M99.0906+425.981C99.0906+420.215+103.765+415.54+109.532+415.54C115.298+415.54+119.972+420.215+119.972+425.981C119.972+431.748+115.298+436.422+109.532+436.422C103.765+436.422+99.0906+431.748+99.0906+425.981Z" opacity="1" fill="#3f3d56"/>
<path d="M122.382+524.769C122.382+524.769+111.941+499.068+143.264+479.792L122.382+524.769Z" opacity="1" fill="#3f3d56"/>
<path d="M109.541+524.302C109.541+524.302+104.789+496.972+68.0115+497.206L109.541+524.302Z" opacity="1" fill="#3f3d56"/>
</g>
</svg>
