<?xml version="1.0" encoding="UTF-8" standalone="no"?> <!-- Created with Vectornator for iOS (http://vectornator.io/) --><!DOCTYPE svg PUBLIC "-//W3C//DTD SVG 1.1//EN" "http://www.w3.org/Graphics/SVG/1.1/DTD/svg11.dtd">
<svg style="fill-rule:evenodd;clip-rule:evenodd;stroke-linecap:round;stroke-linejoin:round;" xmlns:vectornator="http://vectornator.io" xmlns:xlink="http://www.w3.org/1999/xlink" xmlns="http://www.w3.org/2000/svg" xml:space="preserve" version="1.1" viewBox="0 0 750 680.228">
<metadata>
<vectornator:setting key="RulersVisible" value="1"/>
<vectornator:setting key="Units" value="Points"/>
<vectornator:setting key="DynamicGuides" value="1"/>
<vectornator:setting key="GuidesVisible" value="1"/>
<vectornator:setting key="CMYKEnabledKey" value="0"/>
<vectornator:setting key="SnapToGuides" value="1"/>
<vectornator:setting key="GridSpacing" value="36"/>
</metadata>
<defs/>
<g id="Untitled" vectornator:layerName="Untitled">
<path d="M122.722+203.355C122.722+106.705+201.072+28.3553+297.722+28.3553C394.372+28.3553+472.722+106.705+472.722+203.355C472.722+300.005+394.372+378.355+297.722+378.355C201.072+378.355+122.722+300.005+122.722+203.355Z" fill-opacity="0.225028" fill="#73cbff" opacity="0.686127"/>
<path d="M187.224+517.379L376.224+517.379L376.224+517.379L376.224+519.641L376.224+519.641L187.224+519.641L187.224+519.641L187.224+517.379L187.224+517.379Z" opacity="1" fill="#3f3d56"/>
<path d="M71.1216+658.934L627.229+658.934L627.229+658.934L627.229+661.296L627.229+661.296L71.1216+661.296L71.1216+661.296L71.1216+658.934L71.1216+658.934Z" opacity="1" fill="#3f3d56"/>
<path d="M571.018+443.756L760.018+443.756L760.018+443.756L760.018+446.018L760.018+446.018L571.018+446.018L571.018+446.018L571.018+443.756L571.018+443.756Z" opacity="1" fill="#3f3d56"/>
<path d="M171.698+234.721L200.529+223.57L200.529+223.57L211.294+251.403L211.294+251.403L182.463+262.554L182.463+262.554L171.698+234.721L171.698+234.721Z" opacity="1" fill="#f2f2f2"/>
<path d="M206.084+249.208L175.735+260.946L164.404+231.648L194.753+219.91L206.084+249.208ZM176.686+258.894L204+248.33L193.802+221.962L166.488+232.526L176.686+258.894Z" opacity="1" fill="#3f3d56"/>
<path d="M623.127+530.015L633.177+559.248L633.177+559.248L604.957+568.95L604.957+568.95L594.906+539.717L594.906+539.717L623.127+530.015L623.127+530.015Z" opacity="1" fill="#f2f2f2"/>
<path d="M607.348+563.827L596.768+533.055L626.474+522.842L637.054+553.614L607.348+563.827ZM598.783+534.083L608.304+561.778L635.04+552.586L625.518+524.892L598.783+534.083Z" opacity="1" fill="#3f3d56"/>
<g opacity="1">
<path d="M133.81+621.046L171.698+621.046L171.698+621.046L171.698+658.934L171.698+658.934L133.81+658.934L133.81+658.934L133.81+621.046L133.81+621.046Z" opacity="1" fill="#cfcce0"/>
<path d="M166.713+653.949L126.83+653.949L126.83+614.066L166.713+614.066L166.713+653.949ZM128.824+651.955L164.719+651.955L164.719+616.06L128.824+616.06L128.824+651.955Z" opacity="1" fill="#3f3d56"/>
<path d="M119.209+451.317C133.267+451.619+144.45+461.806+144.45+461.806C144.45+461.806+132.841+471.505+118.783+471.203C104.725+470.901+93.5418+460.714+93.5418+460.714C93.5418+460.714+105.151+451.015+119.209+451.317Z" opacity="1" fill="#60bef5"/>
<path d="M48.5332+403.33C61.2339+409.364+75.7975+405.272+75.7975+405.272C75.7975+405.272+69.7693+391.398+57.0685+385.364C44.3678+379.33+29.8042+383.422+29.8042+383.422C29.8042+383.422+35.8324+397.296+48.5332+403.33Z" opacity="1" fill="#60bef5"/>
<path d="M49.8242+397.334C63.827+396.054+76.0836+404.921+76.0836+404.921C76.0836+404.921+65.6372+415.862+51.6344+417.142C37.6316+418.422+25.375+409.555+25.375+409.555C25.375+409.555+35.8214+398.614+49.8242+397.334Z" opacity="1" fill="#3f3d56"/>
<path d="M101.154+399.758C99.8119+413.755+108.624+426.051+108.624+426.051C108.624+426.051+119.612+415.654+120.954+401.657C122.296+387.66+113.484+375.364+113.484+375.364C113.484+375.364+102.496+385.761+101.154+399.758Z" opacity="1" fill="#3f3d56"/>
<path d="M146.402+485.826C139.057+497.817+141.584+512.732+141.584+512.732C141.584+512.732+156.019+508.207+163.364+496.216C170.708+484.225+168.181+469.31+168.181+469.31C168.181+469.31+153.747+473.836+146.402+485.826Z" opacity="1" fill="#3f3d56"/>
<path d="M145.793+615.969L146.863+615.246C143.091+609.771+141.031+603.298+140.945+596.65C140.975+586.924+145.752+577.929+150.372+569.23C151.229+567.615+152.084+566.006+152.906+564.397C156.357+557.839+159.107+550.934+161.111+543.799C168.277+517.17+161.222+485.752+142.239+459.757C127.181+439.135+104.732+421.102+73.6129+404.628L73.0087+405.77C103.951+422.15+126.255+440.059+141.196+460.519C159.95+486.201+166.929+517.208+159.864+543.463C157.883+550.511+155.166+557.331+151.756+563.81C150.937+565.412+150.085+567.015+149.231+568.624C144.537+577.462+139.684+586.601+139.653+596.646C139.739+603.553+141.876+610.279+145.793+615.969Z" opacity="1" fill="#3f3d56"/>
<path d="M0+394.054C0+387.276+5.49416+381.782+12.2716+381.782C19.049+381.782+24.5431+387.276+24.5431+394.054C24.5431+400.831+19.049+406.325+12.2716+406.325C5.49416+406.325+0+400.831+0+394.054Z" opacity="1" fill="#3f3d56"/>
</g>
<path d="M665.142+432.232L475.207+364.015L509.116+269.602L627.379+240.599L699.052+337.82L665.142+432.232Z" opacity="1" fill="#2f2e41"/>
<path d="M642.133+413.51L500.194+359.404C537.041+310.047+553.519+275.231+553.531+220.445L695.47+274.551C662.495+321.392+648.705+356.605+642.133+413.51Z" opacity="1" fill="#f2f2f2"/>
<path d="M579.77+253.924L653.304+281.955L653.304+281.955L652.001+285.376L652.001+285.376L578.466+257.345L578.466+257.345L579.77+253.924L579.77+253.924Z" opacity="1" fill="#3f3d56"/>
<path d="M574.555+267.605L648.089+295.636L648.089+295.636L646.786+299.056L646.786+299.056L573.251+271.025L573.251+271.025L574.555+267.605L574.555+267.605Z" opacity="1" fill="#3f3d56"/>
<path d="M569.34+281.286L642.874+309.317L642.874+309.317L641.571+312.737L641.571+312.737L568.036+284.706L568.036+284.706L569.34+281.286L569.34+281.286Z" opacity="1" fill="#3f3d56"/>
<path d="M564.124+294.967L637.659+322.998L637.659+322.998L636.355+326.418L636.355+326.418L562.821+298.387L562.821+298.387L564.124+294.967L564.124+294.967Z" opacity="1" fill="#3f3d56"/>
<path d="M558.909+308.648L632.444+336.679L632.444+336.679L631.14+340.099L631.14+340.099L557.606+312.068L557.606+312.068L558.909+308.648L558.909+308.648Z" opacity="1" fill="#3f3d56"/>
<path d="M553.694+322.329L627.229+350.36L627.229+350.36L625.925+353.78L625.925+353.78L552.391+325.749L552.391+325.749L553.694+322.329L553.694+322.329Z" opacity="1" fill="#3f3d56"/>
<path d="M548.479+336.01L622.014+364.041L622.014+364.041L620.71+367.461L620.71+367.461L547.176+339.43L547.176+339.43L548.479+336.01L548.479+336.01Z" opacity="1" fill="#3f3d56"/>
<path d="M543.264+349.69L616.799+377.721L616.799+377.721L615.495+381.142L615.495+381.142L541.96+353.111L541.96+353.111L543.264+349.69L543.264+349.69Z" opacity="1" fill="#3f3d56"/>
<path d="M660.754+444.45L470.819+376.233L509.116+269.602L589.324+344.808L699.052+337.82L660.754+444.45Z" opacity="1" fill="#3f3d56"/>
<path d="M564.246+410.851L469.54+376.836L492.616+312.583L494.499+313.259L472.099+375.629L564.922+408.968L564.246+410.851Z" opacity="1" fill="#60bef5"/>
<path d="M502.813+332.546L530.581+342.519L530.581+342.519L526.592+353.627L526.592+353.627L498.824+343.653L498.824+343.653L502.813+332.546L502.813+332.546Z" opacity="1" fill="#60bef5"/>
<g opacity="1">
<path d="M362.452+487.105L246.645+517.655L230.368+452.41L294.751+463.06L346.587+423.417L362.452+487.105Z" opacity="1" fill="#3f3d56"/>
<path d="M248.02+485.547L265.011+481.308L265.011+481.308L266.707+488.105L266.707+488.105L249.716+492.344L249.716+492.344L248.02+485.547L248.02+485.547Z" opacity="1" fill="#60bef5"/>
<path d="M346.95+423.226L296.311+468.537L230.468+454.021L230.013+452.299L346.495+421.505L346.95+423.226Z" opacity="1" fill="#60bef5"/>
</g>
<path d="M623.669+258.502C610.768+253.584+601.749+245.82+603.525+241.16C605.301+236.5+617.2+236.709+630.102+241.627C643.003+246.545+652.022+254.31+650.246+258.969C648.469+263.629+636.571+263.42+623.669+258.502Z" opacity="1" fill="#60bef5"/>
<path d="M670.663+116.859C650.622+110.627+629.325+121.822+623.093+141.862C616.862+161.902+633.844+235.267+633.844+235.267C633.844+235.267+689.434+184.468+695.666+164.428C701.897+144.388+690.703+123.09+670.663+116.859ZM654.035+170.333C644.542+167.382+639.24+157.293+642.191+147.801C645.143+138.308+655.231+133.005+664.724+135.957C674.217+138.909+679.52+148.997+676.568+158.49C673.616+167.983+663.528+173.285+654.035+170.333Z" opacity="1" fill="#60bef5"/>
<path d="M451.377+88.6028C437.756+65.5881+410.809+64.5155+410.809+64.5155C410.809+64.5155+384.55+61.1575+367.705+96.2093C352.005+128.88+330.336+160.425+364.217+168.073L370.337+149.025L374.127+169.491C378.951+169.838+383.79+169.921+388.623+169.739C424.907+168.567+459.462+170.082+458.35+157.061C456.871+139.753+464.483+110.748+451.377+88.6028Z" opacity="1" fill="#2f2e41"/>
<path d="M342.464+592.956L342.464+629.334L323.688+626.987L323.688+596.476L342.464+592.956Z" opacity="1" fill="#997238"/>
<path d="M472.722+616.426L479.763+644.59L496.192+638.722L484.457+611.732L472.722+616.426Z" opacity="1" fill="#997238"/>
<path d="M345.985+203.355L348.332+267.898L363.587+272.592L368.281+210.396L345.985+203.355Z" opacity="1" fill="#997238"/>
<path d="M350.678+263.204L348.331+267.898L327.208+287.847C327.208+287.847+311.953+300.756+317.82+308.97L333.076+301.929L333.076+297.235L368.281+272.592L350.678+263.204Z" opacity="1" fill="#997238"/>
<path d="M436.344+281.98L436.344+308.97L345.985+294.888L356.546+274.939L436.344+281.98Z" opacity="1" fill="#ffb8b8"/>
<path d="M477.416+197.488C477.416+197.488+485.63+219.785+486.804+222.132C487.977+224.479+502.059+278.459+502.059+278.459L537.264+334.787C537.264+334.787+563.081+365.298+546.652+366.472C530.223+367.645+518.488+340.655+518.488+340.655L483.283+294.888L450.425+208.05L477.416+197.488Z" opacity="1" fill="#997238"/>
<path d="M375.908+113.583C375.908+94.7883+391.145+79.5519+409.94+79.5519C428.735+79.5519+443.971+94.7883+443.971+113.583C443.971+132.378+428.735+147.615+409.94+147.615C391.145+147.615+375.908+132.378+375.908+113.583Z" opacity="1" fill="#997238"/>
<path d="M399.965+136.466C399.965+136.466+399.965+161.11+387.057+164.63C374.148+168.151+397.618+193.968+397.618+193.968L444.558+170.498C444.558+170.498+424.608+163.457+430.476+136.466L399.965+136.466Z" opacity="1" fill="#997238"/>
<path d="M392.337+161.697L392.337+161.697L367.45+169.911C353.677+175.469+344.201+188.3+342.94+203.099C342.502+207.574+343.144+212.088+344.811+216.264C351.852+232.693+360.066+236.214+360.066+236.214C360.066+236.214+361.24+243.255+360.066+244.428C358.893+245.602+356.546+246.775+357.719+250.296C358.893+253.816+360.066+252.643+358.893+256.163C357.719+259.684+353.025+267.898+353.025+267.898C353.025+267.898+357.719+270.245+354.199+272.592C350.678+274.939+346.274+281.999+346.274+281.999C346.274+281.999+368.281+301.864+436.344+301.864L451.599+233.867C451.599+233.867+484.457+220.958+483.283+208.05C482.11+195.141+475.069+183.406+466.854+179.886C458.64+176.365+438.706+166.967+438.706+166.967C438.706+166.967+436.078+175.695+412.051+173.593C403.998+172.878+396.724+168.488+392.337+161.697Z" opacity="1" fill="#3f3d56"/>
<path d="M438.69+300.756C438.69+300.756+361.24+296.062+349.505+279.633L316.647+311.317L320.167+331.267L318.994+591.783C318.994+591.783+317.82+604.691+321.341+604.691C324.861+604.691+343.637+607.038+344.811+604.691C345.984+602.344+341.29+597.65+349.505+595.303C357.719+592.956+357.719+601.171+357.719+592.956C357.719+584.742+356.546+549.537+354.199+543.67C351.852+537.802+381.189+402.85+381.189+402.85C381.189+402.85+458.64+611.732+464.507+616.426C470.375+621.12+471.548+628.161+475.069+626.988C478.589+625.814+495.018+621.12+496.192+619.947C497.365+618.773+495.018+609.385+496.192+605.865C497.365+602.344+500.886+607.038+496.192+599.997C491.498+592.956+490.324+588.262+490.324+584.742C490.324+581.221+446.905+354.737+446.905+354.737C446.905+354.737+456.293+333.614+442.211+321.879L438.69+300.756Z" opacity="1" fill="#2f2e41"/>
<path d="M344.811+619.947C344.811+619.947+333.076+608.212+328.382+608.212L316.647+608.212C316.647+608.212+306.085+630.508+302.565+631.682C299.044+632.855+275.574+661.019+296.697+661.019C317.82+661.019+326.035+653.978+326.035+653.978L344.811+644.59L344.811+619.947Z" opacity="1" fill="#2f2e41"/>
<path d="M477.817+636.808L475.069+661.019C475.069+661.019+498.539+670.407+498.539+671.581C498.539+672.754+536.091+690.357+538.438+675.101C540.785+659.846+519.662+646.937+519.662+646.937C519.662+646.937+497.143+620.276+493.147+621.285C489.151+622.294+489.151+629.335+489.151+629.335L477.817+636.808Z" opacity="1" fill="#2f2e41"/>
<path d="M394.623+64.6321C394.623+53.8711+403.346+45.1476+414.107+45.1476C424.868+45.1476+433.591+53.8711+433.591+64.6321C433.591+75.393+424.868+84.1165+414.107+84.1165C403.346+84.1165+394.623+75.393+394.623+64.6321Z" opacity="1" fill="#2f2e41"/>
<path d="M392.572+59.5046C392.573+49.5382+400.094+41.1791+410.005+40.1297C402.591+39.3402+395.377+42.8508+391.423+49.1719C387.469+55.493+387.469+63.5162+391.423+69.8373C395.377+76.1584+402.591+79.6689+410.005+78.8795C400.094+77.8301+392.573+69.471+392.572+59.5046Z" opacity="1" fill="#2f2e41"/>
<path d="M445.355+86.3848L418.732+72.439L381.967+78.1433L374.361+111.739L393.296+111.011L398.585+98.6689L398.585+110.808L407.323+110.472L412.394+90.8218L415.563+111.739L446.622+111.106L445.355+86.3848Z" opacity="1" fill="#2f2e41"/>
</g>
</svg>
