<?xml version="1.0" encoding="UTF-8" standalone="no"?> <!-- Created with Vectornator for iOS (http://vectornator.io/) --><!DOCTYPE svg PUBLIC "-//W3C//DTD SVG 1.1//EN" "http://www.w3.org/Graphics/SVG/1.1/DTD/svg11.dtd">
<svg style="fill-rule:evenodd;clip-rule:evenodd;stroke-linecap:round;stroke-linejoin:round;" xmlns:vectornator="http://vectornator.io" xmlns:xlink="http://www.w3.org/1999/xlink" xmlns="http://www.w3.org/2000/svg" xml:space="preserve" version="1.1" viewBox="0 0 450 400">
<metadata>
<vectornator:setting key="RulersVisible" value="1"/>
<vectornator:setting key="Units" value="Points"/>
<vectornator:setting key="DynamicGuides" value="1"/>
<vectornator:setting key="GuidesVisible" value="1"/>
<vectornator:setting key="CMYKEnabledKey" value="0"/>
<vectornator:setting key="SnapToGuides" value="1"/>
<vectornator:setting key="GridSpacing" value="36"/>
</metadata>
<defs/>
<g id="Untitled" vectornator:layerName="Untitled">
<path d="M50+201.518C50+91.0612+139.543+1.51837+250+1.51837C360.457+1.51837+450+91.0612+450+201.518C450+311.975+360.457+401.518+250+401.518C139.543+401.518+50+311.975+50+201.518Z" opacity="1" fill="#60bef5"/>
<path d="M145.43+224.591C145.43+148.418+207.182+86.6675+283.354+86.6675C359.529+86.6675+421.277+148.418+421.277+224.591C421.277+300.764+359.529+362.517+283.354+362.517C207.182+362.517+145.43+300.764+145.43+224.591Z" fill-rule="evenodd" fill="#2f2e41" opacity="1"/>
<path d="M184.291+274.449C184.291+217.756+230.249+171.796+286.944+171.796C343.635+171.796+389.597+217.756+389.597+274.449C389.597+331.142+343.635+377.104+286.944+377.104C230.249+377.104+184.291+331.142+184.291+274.449Z" fill-rule="evenodd" fill="#997238" opacity="1"/>
<path d="M184.538+208.985C224.627+233.457+269.82+248.349+316.606+252.501L302.684+235.821C312.823+239.569+323.489+241.687+334.285+242.096C345.252+242.414+355.718+237.515+362.497+228.892C368.039+219.93+368.841+208.823+364.649+199.155C360.407+189.655+353.803+181.398+345.469+175.171C315.461+151.432+275.555+144.3+239.18+156.175C226.897+159.847+215.896+166.904+207.437+176.539C198.99+186.398+196.065+199.842+199.651+212.319" fill-rule="evenodd" fill="#2f2e41" opacity="1"/>
<path d="M296.339+94.9351C267.119+64.7531+231.763+41.4623+192.755+26.7025C167.714+17.2533+140.459+11.4148+114.279+16.7811C88.103+22.1473+63.345+40.5948+56.0429+66.7583C50.0721+88.1526+56.239+111.188+65.5063+131.327C74.7736+151.466+87.145+170.141+94.6396+191.032C110.179+234.34+108.739+294.201+78.1915+328.333C60.3616+348.255+45.1633+332.81+0+329.72C25.7236+333.232+35.6346+400+87.3339+387.009C114.203+380.257+128.261+332.938+127.307+304.987C125.885+263.435+124.463+221.882+123.045+180.33C122.321+159.139+121.702+137.269+129.204+117.491C136.706+97.7118+154.535+80.3924+175.348+80.5726C191.125+80.709+205.089+90.4437+217.739+100.044C230.39+109.645+243.783+119.888+259.497+121.316C275.21+122.744+293.152+110.898+291.975+94.8725" fill-rule="evenodd" fill="#2f2e41" opacity="1"/>
</g>
</svg>
