<?xml version="1.0" encoding="UTF-8" standalone="no"?> <!-- Created with Vectornator for iOS (http://vectornator.io/) --><!DOCTYPE svg PUBLIC "-//W3C//DTD SVG 1.1//EN" "http://www.w3.org/Graphics/SVG/1.1/DTD/svg11.dtd">
<svg height="100%" style="fill-rule:evenodd;clip-rule:evenodd;stroke-linecap:round;stroke-linejoin:round;" xmlns:xlink="http://www.w3.org/1999/xlink" xmlns="http://www.w3.org/2000/svg" xml:space="preserve" width="100%" xmlns:vectornator="http://vectornator.io" version="1.1" viewBox="0 0 1144 751.924">
<metadata>
<vectornator:setting key="DynamicGuides" value="1"/>
<vectornator:setting key="Units" value="Points"/>
<vectornator:setting key="GuidesVisible" value="1"/>
<vectornator:setting key="RulersVisible" value="1"/>
<vectornator:setting key="SnapToGuides" value="1"/>
<vectornator:setting key="GridSpacing" value="36"/>
</metadata>
<defs/>
<g id="Untitled" vectornator:layerName="Untitled">
<path d="M1111.98+428.056L904.837+604.443L859.514+643.032L732.687+642.258L624.449+641.6L615.459+641.547L593.494+615.748L506.164+513.186L462.326+461.696L449.145+446.22L439.61+435.019L418.361+410.063L383.958+369.662L418.802+339.995L452.079+311.657L475.999+291.291L777.168+34.846L1111.98+428.056Z" opacity="1" fill="#f2f2f2"/>
<path d="M97+101.924L494+101.924L494+101.924L494+388.924L494+388.924L97+388.924L97+388.924L97+101.924L97+101.924Z" opacity="1" fill="#3f3d56"/>
<path d="M579+694.924L953+694.924L953+694.924L953+696.924L953+696.924L579+696.924L579+696.924L579+694.924L579+694.924Z" opacity="1" fill="#3f3d56"/>
<path d="M1133.92+641.923L834.57+641.923C834.57+641.923+828.502+552.926+864.404+551.915C900.307+550.904+896.261+591.357+941.266+535.734C986.27+480.111+1040.88+483.145+1047.96+516.013C1055.04+548.881+1034.31+575.176+1072.23+567.085C1110.16+558.994+1164.77+580.232+1133.92+641.923Z" opacity="1" fill="#60bef5"/>
<path d="M979.194+641.944L978.184+641.903C980.54+583.308+992.812+545.66+1002.69+524.396C1013.42+501.307+1023.76+491.96+1023.86+491.869L1024.53+492.624C1024.43+492.715+1014.21+501.969+1003.57+524.902C993.746+546.076+981.541+583.57+979.194+641.944Z" opacity="1" fill="#f2f2f2"/>
<path d="M1087.54+642.065L1086.57+641.782C1098.26+601.656+1125.79+576.321+1126.06+576.07L1126.74+576.819C1126.47+577.068+1099.15+602.223+1087.54+642.065Z" opacity="1" fill="#f2f2f2"/>
<path d="M881.72+641.993L880.718+641.854C884.684+613.248+877.52+591.054+870.811+577.473C863.546+562.769+855.258+554.737+855.175+554.658L855.875+553.928C855.959+554.008+864.376+562.163+871.717+577.026C878.489+590.734+885.721+613.133+881.72+641.993Z" opacity="1" fill="#f2f2f2"/>
<path d="M43+641.924L1144+641.924L1144+641.924L1144+643.924L1144+643.924L43+643.924L43+643.924L43+641.924L43+641.924Z" opacity="1" fill="#3f3d56"/>
<path d="M724.735+39.4133L819.43+39.4133L819.43+39.4133L819.43+157.065L819.43+157.065L724.735+157.065L724.735+157.065L724.735+39.4133L724.735+39.4133Z" opacity="1" fill="#2f2e41"/>
<path d="M646.54+588.213L633.627+635.561L655.149+651.343L660.888+647.039L670.931+598.257L646.54+588.213Z" opacity="1" fill="#997238"/>
<path d="M808.669+583.909L804.365+641.3L831.626+641.3L831.626+588.213L808.669+583.909Z" opacity="1" fill="#997238"/>
<path d="M722.583+220.912L722.583+255.346L775.67+263.955L821.582+245.303L812.974+223.781L722.583+220.912Z" opacity="1" fill="#ffb8b8"/>
<path d="M765.626+249.607L719.714+240.999L708.235+334.259L679.54+450.475C679.54+450.475+636.497+549.475+642.236+572.431L645.106+579.605L642.236+592.518L670.931+603.996L682.41+585.344C682.41+585.344+691.018+598.257+705.366+570.996C719.714+543.735+779.974+374.432+779.974+374.432L790.017+403.128C787.419+411.978+786.928+421.314+788.583+430.389C791.452+444.736+794.322+489.214+794.322+489.214C794.322+489.214+778.539+566.692+800.061+572.431L804.365+589.648L834.495+592.518L840.234+575.3C840.234+575.3+868.93+565.257+861.756+515.04C854.582+464.823+851.713+299.824+851.713+299.824L823.447+230.131L765.626+249.607Z" opacity="1" fill="#2f2e41"/>
<path d="M642.236+632.691C642.236+632.691+635.062+626.952+632.193+628.387C629.323+629.822+599.193+668.561+599.193+668.561C599.193+668.561+567.628+692.952+590.584+695.821C613.541+698.691+676.67+667.126+676.67+659.952C676.67+652.778+663.405+634.811+663.405+634.811C663.405+634.811+653.714+642.735+642.236+632.691Z" opacity="1" fill="#2f2e41"/>
<path d="M801.496+628.387C801.496+628.387+827.321+626.783+831.626+631.172C835.93+635.561+834.495+657.082+834.495+657.082C834.495+657.082+837.365+695.821+814.408+695.821C791.452+695.821+797.191+669.995+797.191+669.995L801.496+628.387Z" opacity="1" fill="#2f2e41"/>
<path d="M739.8+58.7827C739.8+38.9727+755.86+22.9135+775.67+22.9135C795.48+22.9135+811.539+38.9727+811.539+58.7827C811.539+78.5928+795.48+94.652+775.67+94.652C755.86+94.652+739.8+78.5928+739.8+58.7827Z" opacity="1" fill="#997238"/>
<path d="M751.996+81.0217C751.996+81.0217+772.083+105.413+731.909+124.065C691.736+142.717+760.605+220.195+760.605+220.195C760.605+220.195+840.952+190.064+833.778+131.239C833.778+131.239+784.996+122.63+796.474+82.4565L751.996+81.0217Z" opacity="1" fill="#997238"/>
<path d="M730.474+122.63C730.474+122.63+697.475+118.326+696.04+145.586C694.605+172.847+696.04+238.847+696.04+238.847C696.04+238.847+681.692+296.237+688.866+346.454C688.866+346.454+680.257+405.28+703.214+402.41C726.17+399.541+708.953+342.15+708.953+342.15L718.996+248.89L714.692+180.021L733.344+138.413L730.474+122.63Z" opacity="1" fill="#997238"/>
<path d="M825.447+128.969C825.447+128.969+856.734+128.369+858.169+151.325C859.604+174.282+848.126+244.586+848.126+244.586L830.908+253.194L815.126+204.412L825.447+128.969Z" opacity="1" fill="#997238"/>
<path d="M834.495+246.738L831.626+253.912L840.234+275.433C840.234+275.433+805.8+302.694+808.669+308.433C811.539+314.172+827.321+301.259+827.321+301.259L850.278+312.737C850.278+312.737+868.93+292.65+860.321+273.998C851.713+255.346+848.387+242.959+848.387+242.959C848.387+242.959+835.93+242.433+834.495+246.738Z" opacity="1" fill="#997238"/>
<path d="M724.018+117.608L719.714+164.956C719.714+164.956+699.627+185.043+722.583+212.303L719.326+242.433C719.326+242.433+755.957+250.325+766+253.194C776.043+256.064+823.904+231.515+823.904+231.515L824.452+215.173C824.452+215.173+838.8+195.086+834.495+164.956C830.191+134.826+834.495+124.782+834.495+124.782L824.452+123.347C824.452+123.347+817.995+167.108+773.517+171.412C773.517+171.412+718.279+176.434+734.061+117.608L724.018+117.608Z" opacity="1" fill="#6fc8fc"/>
<path d="M779.257+0.6745C779.257+0.6745+741.953-1.63807+733.344+21.5593C724.735+44.7566+709.67+56.9352+709.67+56.9352C709.67+56.9352+685.939+73.4312+697.805+102.879C697.805+102.879+660.888+127.687+685.279+149.725C685.279+149.725+683.844+171.762+698.192+186.84C698.192+186.84+709.67+192.64+705.366+196.119C701.062+199.599+734.061+197.279+731.192+165.963C728.322+134.646+747.692+112.587+747.692+112.587C747.692+112.587+729.04+71.9838+737.648+58.0654C742.875+49.6149+745.119+43.3132+749.458+39.666C751.875+37.6834+754.115+35.4964+756.156+33.1292C760.106+28.1363+766.713+26.0758+772.8+27.9386C785.713+31.4182+788.583+41.857+788.583+41.857C788.583+41.857+797.909+66.7941+813.691+78.3928C829.474+89.9914+801.496+110.289+801.496+110.289C801.496+110.289+806.359+134.187+818.992+148.335C831.626+162.483+815.351+174.816+814.408+176.402C812.256+180.021+803.661+202.876+839.165+202.977C839.165+202.977+847.408+185.68+858.886+175.242C870.365+164.803+861.756+134.646+861.756+134.646C861.756+134.646+878.973+124.208+860.321+98.6905C860.321+98.6905+866.06+75.4931+850.278+60.4148C850.278+60.4148+828.039-7.44456+779.257+0.6745Z" opacity="1" fill="#2f2e41"/>
<path d="M733.344+58.0653C733.344+54.8957+734.95+52.3263+736.931+52.3263C738.912+52.3263+740.518+54.8957+740.518+58.0653C740.518+61.235+738.912+63.8044+736.931+63.8044C734.95+63.8044+733.344+61.235+733.344+58.0653Z" opacity="1" fill="#997238"/>
<path d="M593+750.923L1+750.923C1+750.923-11+574.923+60+572.923C131+570.923+123+650.923+212+540.923C301+430.923+409+436.923+423+501.923C437+566.923+396+618.923+471+602.923C546+586.923+654+628.923+593+750.923Z" opacity="1" fill="#60bef5"/>
<path d="M287.007+750.964L285.009+750.883C289.668+635.006+313.937+560.554+333.475+518.503C354.689+472.842+375.131+454.358+375.335+454.176L376.665+455.671C376.463+455.85+356.259+474.151+335.215+519.503C315.785+561.377+291.649+635.523+287.007+750.964Z" opacity="1" fill="#f2f2f2"/>
<path d="M501.267+751.203L499.347+750.644C522.466+671.291+576.908+621.189+577.456+620.692L578.8+622.173C578.257+622.666+524.222+672.413+501.267+751.203Z" opacity="1" fill="#f2f2f2"/>
<path d="M94.2427+751.061L92.2612+750.786C100.105+694.215+85.9365+650.325+72.669+623.467C58.3032+594.387+41.9121+578.505+41.7481+578.347L43.1318+576.904C43.2983+577.063+59.9428+593.19+74.4619+622.582C87.8535+649.691+102.156+693.987+94.2427+751.061Z" opacity="1" fill="#f2f2f2"/>
<path d="M0+749.924L837+749.924L837+749.924L837+751.924L837+751.924L0+751.924L0+751.924L0+749.924L0+749.924Z" opacity="1" fill="#3f3d56"/>
<path d="M565+389.924L96+389.924L96+17.9235L565+17.9235L565+389.924ZM98+387.924L563+387.924L563+19.9235L98+19.9235L98+387.924Z" opacity="1" fill="#3f3d56"/>
<path d="M120+170.924C120+161.535+127.611+153.924+137+153.924C146.389+153.924+154+161.535+154+170.924C154+180.312+146.389+187.924+137+187.924C127.611+187.924+120+180.312+120+170.924Z" opacity="1" fill="#6fc8fc"/>
<path d="M168+170.924C168+161.535+175.611+153.924+185+153.924C194.389+153.924+202+161.535+202+170.924C202+180.312+194.389+187.924+185+187.924C175.611+187.924+168+180.312+168+170.924Z" opacity="1" fill="#d0cde1"/>
<path d="M216+170.924C216+161.535+223.611+153.924+233+153.924C242.389+153.924+250+161.535+250+170.924C250+180.312+242.389+187.924+233+187.924C223.611+187.924+216+180.312+216+170.924Z" opacity="0.5" fill="#489dcb"/>
<path d="M264+170.924C264+161.535+271.611+153.924+281+153.924C290.389+153.924+298+161.535+298+170.924C298+180.312+290.389+187.924+281+187.924C271.611+187.924+264+180.312+264+170.924Z" opacity="1" fill="#f2f2f2"/>
<path d="M330+162.924L470+162.924L470+162.924L470+178.924L470+178.924L330+178.924L330+178.924L330+162.924L330+162.924Z" opacity="1" fill="#f2f2f2"/>
<path d="M242+283.924C242+258.518+262.595+237.924+288+237.924C313.405+237.924+334+258.518+334+283.924C334+309.329+313.405+329.924+288+329.924C262.595+329.924+242+309.329+242+283.924Z" opacity="1" fill="#f2f2f2"/>
<path d="M288.191+297.772L265.171+274.752C263.609+273.19+263.609+270.657+265.171+269.095C266.734+267.533+269.266+267.533+270.829+269.095L287.809+286.075L341.993+224.286C343.449+222.625+345.976+222.46+347.637+223.916C349.298+225.373+349.464+227.9+348.007+229.561L288.191+297.772Z" opacity="1" fill="#489dcb"/>
</g>
</svg>
