<?xml version="1.0" encoding="UTF-8" standalone="no"?> <!-- Created with Vectornator for iOS (http://vectornator.io/) --><!DOCTYPE svg PUBLIC "-//W3C//DTD SVG 1.1//EN" "http://www.w3.org/Graphics/SVG/1.1/DTD/svg11.dtd">
<svg height="100%" style="fill-rule:evenodd;clip-rule:evenodd;stroke-linecap:round;stroke-linejoin:round;" xmlns:xlink="http://www.w3.org/1999/xlink" xmlns="http://www.w3.org/2000/svg" xml:space="preserve" width="100%" xmlns:vectornator="http://vectornator.io" version="1.1" viewBox="0 0 400 350">
<metadata>
<vectornator:setting key="DynamicGuides" value="1"/>
<vectornator:setting key="Units" value="Points"/>
<vectornator:setting key="GuidesVisible" value="1"/>
<vectornator:setting key="RulersVisible" value="1"/>
<vectornator:setting key="SnapToGuides" value="1"/>
<vectornator:setting key="GridSpacing" value="36"/>
</metadata>
<defs/>
<g id="Untitled" vectornator:layerName="Untitled">
<path d="M169.415+79.4665C169.415+61.2411+184.19+46.4665+202.415+46.4665C220.641+46.4665+235.415+61.2411+235.415+79.4665C235.415+97.6919+220.641+112.467+202.415+112.467C184.19+112.467+169.415+97.6919+169.415+79.4665Z" fill-rule="evenodd" fill="#2f2e41" opacity="1"/>
<path d="M220.788+266.724L223.33+278.717L270.8+274.622L267.048+256.921L220.788+266.724Z" fill-rule="evenodd" fill="#997238" opacity="1"/>
<path d="M217.095+304.207L209.107+266.513L209.107+266.513L223.67+263.427L223.67+263.427L228.572+286.557C230.276+294.601+225.138+302.503+217.095+304.207L217.095+304.207L217.095+304.207Z" fill-rule="evenodd" fill="#2f2e41" opacity="1"/>
<path d="M191.049+266.084L185.706+277.118L140.602+261.762L148.487+245.477L191.049+266.084Z" fill-rule="evenodd" fill="#997238" opacity="1"/>
<path d="M178.737+283.473L189.041+262.192L189.041+262.192L202.44+268.68L202.44+268.68L185.649+303.36L185.649+303.36L185.649+303.36C178.249+299.777+175.155+290.873+178.737+283.473Z" fill-rule="evenodd" fill="#2f2e41" opacity="1"/>
<path d="M102.188+244.291C105.314+244.873+108.537+244.04+110.989+242.018C113.442+239.995+114.873+236.99+114.897+233.81L189.271+165.239L170.801+150.934L103.464+222.877C98.0002+223.198+93.6402+227.554+93.3148+233.017C92.9895+238.481+96.8016+243.324+102.188+244.291Z" fill-rule="evenodd" fill="#997238" opacity="1"/>
<path d="M178.713+91.3957C178.713+77.831+189.709+66.8346+203.274+66.8346C216.838+66.8346+227.835+77.831+227.835+91.3957C227.835+104.96+216.838+115.957+203.274+115.957C189.709+115.957+178.713+104.96+178.713+91.3957Z" fill-rule="evenodd" fill="#997238" opacity="1"/>
<path d="M149.415+173.467L156.415+152.467L192.415+123.467C192.415+123.467+210.415+125.467+233.415+112.467L240.92+112.681C243.504+112.754+245.946+113.882+247.676+115.804C249.406+117.725+250.273+120.272+250.076+122.85C248.185+147.337+244.529+210.396+254.915+231.967C254.915+231.967+199.915+245.967+174.915+216.967C174.915+216.967+184.915+205.967+174.915+185.967L161.915+189.967L149.415+173.467Z" fill-rule="evenodd" fill="#60bef5" opacity="1"/>
<path d="M177.915+216.967C177.915+216.967+112.915+210.967+105.915+229.967C98.9153+248.967+106.915+257.967+118.915+261.967C130.915+265.967+159.915+270.967+159.915+270.967L172.915+254.967L206.915+256.967C206.915+256.967+244.8+278.94+255.275+302.44C259.854+312.803+269.757+319.81+281.053+320.679C289.451+321.263+296.915+318.092+296.915+304.967C296.915+274.967+254.915+231.967+254.915+231.967L177.915+216.967Z" fill-rule="evenodd" fill="#2f2e41" opacity="1"/>
<path d="M128.415+246.467C128.415+246.467+145.415+241.467+172.415+254.467" fill-rule="evenodd" fill="#2f2e41" opacity="1"/>
<path d="M178.772+75.7324C188.364+81.5877+199.177+85.1508+210.371+86.1443L207.04+82.1533C209.466+83.05+212.018+83.5568+214.601+83.6548C217.225+83.7308+219.729+82.5587+221.351+80.4956C222.677+78.3512+222.869+75.6937+221.866+73.3806C220.851+71.1075+219.271+69.132+217.277+67.6421C210.097+61.9623+200.549+60.2559+191.846+63.0971C188.907+63.9755+186.275+65.6641+184.251+67.9693C182.23+70.3282+181.53+73.5449+182.388+76.5302" fill-rule="evenodd" fill="#2f2e41" opacity="1"/>
<path d="M205.522+50.1298C197.775+42.2742+188.401+36.2122+178.059+32.3706C171.42+29.9112+164.194+28.3916+157.253+29.7883C150.313+31.185+143.749+35.9864+141.813+42.7961C140.23+48.3645+141.865+54.3599+144.322+59.6017C146.779+64.8434+150.059+69.7041+152.046+75.1415C156.166+86.4134+154.305+99.0038+147.103+108.603C139.9+118.202+128.331+123.508+116.357+122.704C123.177+123.618+129.463+126.823+136.128+128.529C142.794+130.234+150.661+130.119+155.614+125.343C160.855+120.291+160.96+112.076+160.707+104.801C160.33+93.9859+159.953+83.1709+159.577+72.3559C159.385+66.8405+159.221+61.1483+161.21+56.0004C163.199+50.8525+167.926+46.3447+173.444+46.3916C177.627+46.4271+181.329+48.9608+184.683+51.4596C188.037+53.9583+191.588+56.6243+195.754+56.996C199.92+57.3677+204.677+54.2845+204.365+50.1135" fill-rule="evenodd" fill="#2f2e41" opacity="1"/>
<path d="M214.648+213.355C215.201+213.359+215.753+213.407+216.299+213.497L250.254+177.351L246.792+165.811L263.525+158.31L273.911+183.698L225.059+222.558C225.597+226.888+223.399+231.1+219.539+233.135C215.679+235.17+210.962+234.605+207.692+231.715C204.423+228.825+203.282+224.213+204.828+220.133C206.374+216.052+210.284+213.353+214.648+213.355Z" fill-rule="evenodd" fill="#997238" opacity="1"/>
<path d="M236.915+113.967L236.915+113.967C239.268+112.921+241.945+112.88+244.328+113.853C246.712+114.826+248.595+116.729+249.543+119.123L266.915+162.967L239.915+180.967L236.915+113.967Z" fill-rule="evenodd" fill="#60bef5" opacity="1"/>
</g>
</svg>
